<?xml version="1.0" encoding="UTF-8" standalone="no"?>
<svg
   xmlns:dc="http://purl.org/dc/elements/1.1/"
   xmlns:cc="http://creativecommons.org/ns#"
   xmlns:rdf="http://www.w3.org/1999/02/22-rdf-syntax-ns#"
   xmlns:svg="http://www.w3.org/2000/svg"
   xmlns="http://www.w3.org/2000/svg"
   xmlns:sodipodi="http://sodipodi.sourceforge.net/DTD/sodipodi-0.dtd"
   xmlns:inkscape="http://www.inkscape.org/namespaces/inkscape"
   width="172"
   height="72"
   viewBox="0 0 172 72"
   version="1.1"
   id="svg9"
   sodipodi:docname="commander.svg"
   inkscape:version="1.0 (4035a4fb49, 2020-05-01)">
  <metadata
     id="metadata15">
    <rdf:RDF>
      <cc:Work
         rdf:about="">
        <dc:format>image/svg+xml</dc:format>
        <dc:type
           rdf:resource="http://purl.org/dc/dcmitype/StillImage" />
        <dc:title>Artboard</dc:title>
      </cc:Work>
    </rdf:RDF>
  </metadata>
  <defs
     id="defs13" />
  <sodipodi:namedview
     inkscape:document-rotation="0"
     pagecolor="#ffffff"
     bordercolor="#666666"
     borderopacity="1"
     objecttolerance="10"
     gridtolerance="10"
     guidetolerance="10"
     inkscape:pageopacity="0"
     inkscape:pageshadow="2"
     inkscape:window-width="1920"
     inkscape:window-height="1017"
     id="namedview11"
     showgrid="false"
     inkscape:zoom="2.0727553"
     inkscape:cx="261.22458"
     inkscape:cy="-52.873949"
     inkscape:window-x="-8"
     inkscape:window-y="-8"
     inkscape:window-maximized="1"
     inkscape:current-layer="svg9" />
  <!-- Generator: Sketch 64 (93537) - https://sketch.com -->
  <title
     id="title2">Artboard</title>
  <desc
     id="desc4">Created with Sketch.</desc>
  <path
     sodipodi:nodetypes="cccccccccccccccccccccccccccccccccccccccccssccccccccccscccccccccscccccccccccccccccccccccscccccccccccccscccccsccccccccccc"
     d="m 98.535134,4.3630596 c -1.43622,0.0189 -3.07634,0.69509 -4.15918,1.2034 l 0.11377,0.45472 c 0.48272,0.16818 0.69377,0.40856 0.79578,0.90946 h -0.56845 l -0.11376,0.11377 -0.22715,2.2736504 -2.15992,2.61467 -0.56844,-0.45471 c -0.37229,0.52441 -0.81113,1.03699 -0.6821,1.70521 -0.61538,0.77386 -0.22601,2.02118 -0.35187,2.95574 -0.20523,1.52557 -2.28053,3.53503 -0.89881,5.11567 v 0.11376 c -0.31219,0.43812 -0.32201,0.99447 -0.55464,1.47783 -1.09354,2.27207 -1.93308,4.70136 -4.10635,6.13886 l -2.23366,2.50099 -0.58398,2.15996 -1.38859,5.68411 -1.02312,1.2505 v 0.11376 l 0.34091,0.22715 -0.11376,1.70525 -0.34092,0.11376 0.22715,0.45475 -0.22715,0.11377 v 0.22715 l -0.56844,1.59156 -1.02312,0.34091 v 0.11376 l 0.90943,0.34092 c 1.29941,-0.175 2.34906,-0.4303 2.95575,-1.70525 h 0.11376 l -0.34091,2.84205 h 0.11376 l 1.25049,-5.00201 h 0.11377 l 0.34091,0.34091 c 0.25096,1.70502 0.49266,2.83854 -0.13984,4.5473 -0.2298,0.62071 -0.66278,1.23458 -1.01272,1.85443 h 5.54022 c 0.034,-0.75213 0.4193,-1.3897 1.06888,-2.19549 1.97522,-0.86181 4.06462,-1.3663 5.79735,-2.77142 0.5026,-0.40754 0.81033,-0.97285 1.25586,-1.43301 1.00822,-1.04148 1.92336,-1.49091 1.92771,-3.0712 l 5.797746,-1.2505 0.22715,-0.34091 c 0.48896,0.85829 0.22111,2.78011 0.13304,3.75152 -0.0722,0.79952 0.2264,1.59088 0.18407,2.3873 -0.0752,1.41547 -0.51066,2.81889 -0.77205,4.20628 l -0.16176,0.74642 c 0,0 -7.492456,-0.0265 2.46572,-0.0265 -0.17121,-0.71358 -0.20447,-1.83221 -0.13455,-2.53652 0.1304,-1.30949 0.66652,-2.39267 0.96632,-3.63783 0.23319,-0.96855 0.14664,-1.97534 0.31899,-2.95571 0.21505,-1.22233 0.68976,-2.52593 0.75159,-3.75152 l 1.47788,0.22715 c 0.7121,3.67192 -0.17726,7.45535 0.11376,11.14084 0.66777,0.2109 0.7324,1.06567 0.20561,1.5134 1.28923,-0.0113 3.65427,0.003 3.65427,0.003 l 0.008,-0.26722 0.11376,-0.34091 -0.56836,0.22715 -0.11377,-0.34091 c -1.60622,-1.22926 -1.4629,-4.2008 -1.16481,-6.02517 0.30199,-1.84937 0.30388,-3.88415 0.76445,-5.68411 0.68492,-2.67685 1.88273,-5.16922 2.10557,-7.95776 1.03246,0.49387 1.66889,-0.33827 1.57134,-1.36418 -0.15836,-1.665 -1.33602,-3.14124 -1.68502,-4.77464 l 1.25049,-0.45472 0.11376,-0.11376 0.42252,-1.36422 -0.76358,-1.93259 c 0.45732,-0.48597 0.41507,-1.07871 0.34091,-1.70521 l -0.34095,-0.11372 -0.45475,-3.29677 0.34091,-0.22715 -1.36418,-2.38734 0.79578,-1.1368 c -0.61149,-0.80712 0.008,-2.1077704 -1.36419,-2.3873404 l -0.90946,1.9326204 -1.59156,-0.11376 -0.45472,-1.0231204 -0.11376,-0.11376 -0.45472,-0.11377 -0.22715,0.34092 -0.56844,0.6820904 c 0.20523,0.45619 0.22186,0.26494 0.11377,0.90947 -0.45608,0.59104 -1.10185,1.00153 -1.58068,1.59155 -1.40315,1.72899 -2.81303,4.02524 -3.53503,6.13883 l -3.52411,-1.81894 -0.795766,-0.79574 c -0.0227,-0.98052 -0.3978,-1.63385 -1.13685,-2.27365 l -0.11376,-1.13681 0.68209,-0.11376 -0.45472,-0.79582 0.90943,-2.2736104 -0.11376,-0.22715 0.22715,-0.56844 h 0.454746 l -0.340906,-1.47784 c 0.482676,-0.16818 0.693806,-0.40852 0.795776,-0.90946 -0.531026,-0.47225 -1.227326,-0.64422 -1.979676,-0.635 z M 113.13352,21.823 h 0.22715 c 0.12472,1.65585 1.85091,3.2829 2.21484,5.00198 0.0986,0.46704 -0.32693,2.16627 -0.96098,1.21432 -0.36321,-0.54512 -0.008,-1.93118 -0.003,-2.5785 -1.14898,-0.34092 -1.47492,-2.60368 -1.47787,-3.6378 z m 0.79578,0.22715 0.22715,0.34091 -0.56844,0.11377 -0.11376,-0.34091 z m -4.54726,12.39133 v 1.2505 l -0.79578,-0.11377 c 0.0639,-0.57418 0.30576,-0.84763 0.79578,-1.13684 z"
     style="fill:#291b1b;fill-opacity:1;stroke:none;stroke-width:0.113682"
     id="path182" />
</svg>
