<?xml version="1.0" encoding="UTF-8"?>
<svg width="341px" height="85px" viewBox="0 0 341 85" version="1.1" xmlns="http://www.w3.org/2000/svg" xmlns:xlink="http://www.w3.org/1999/xlink">
    <!-- Generator: Sketch 64 (93537) - https://sketch.com -->
    <title>Combined-Shape</title>
    <desc>Created with Sketch.</desc>
    <g id="Page-1" stroke="none" stroke-width="1" fill="none" fill-rule="evenodd">
        <g id="logo" fill="#291B1B" fill-rule="nonzero">
            <path d="M317.168007,25.4298629 L317.168007,30.0656169 L316.903992,30.0780912 C314.747007,30.2010931 313.668514,30.8003188 313.668514,31.8757684 C313.668514,32.3172688 314.14102,33.3915864 315.08603,35.0987212 L315.08603,35.0987212 L322.838073,49.0942832 L328.729625,36.6439725 L328.861512,36.3568721 C329.807193,34.2857429 330.280033,32.9686418 330.280033,32.4055689 C330.280033,30.8456009 329.024941,30.0656169 326.514755,30.0656169 L326.514755,30.0656169 L326.514755,25.4298629 L341,25.4298629 L341,30.0656169 L340.697812,30.1006008 C339.114347,30.3075509 337.982132,30.8404068 337.301168,31.6991683 C336.577645,32.6116024 334.946024,35.6873884 332.406308,40.9265262 L332.406308,40.9265262 L318.231145,70.2421513 L317.994542,70.7316941 C315.328214,76.2238867 313.177446,79.813459 311.54224,81.500411 C309.858939,83.236979 307.732665,84.105263 305.163416,84.105263 C303.243863,84.105263 301.663923,83.531313 300.423596,82.383412 C299.18327,81.235511 298.563106,79.822709 298.563106,78.145008 C298.563106,75.2899723 300.556488,73.376804 304.543253,72.4055031 C308.234702,71.5519357 310.678441,70.5953516 311.87447,69.5357507 C313.070499,68.4761498 314.392038,66.3716646 315.839086,63.2222953 L315.839086,63.2222953 L300.069217,36.2466222 L299.360459,34.922121 L299.201208,34.6265256 C298.099265,32.5953502 297.266401,31.3620225 296.702616,30.9265426 C296.280736,30.6006733 295.640383,30.3611518 294.781556,30.2079782 L294.726388,30.198 L296.363003,30.198067 L296.363003,25.4298629 L317.168007,25.4298629 Z M130.229644,23.2631579 C135.035542,23.2631579 139.154882,25.0251528 142.587666,28.5491425 C146.02045,32.0731323 147.736842,36.6956042 147.736842,42.4165582 C147.736842,48.314449 145.923437,53.12123 142.296626,56.8369012 C138.669815,60.5525724 134.393761,62.410408 129.468462,62.410408 C127.169989,62.410408 124.93868,61.982811 122.774533,61.1276168 C120.610387,60.2724226 118.498479,59.0043761 116.438808,57.3234772 L116.438808,57.3234772 L116.438808,71.7438202 L116.442056,72.1013799 C116.478862,74.0927371 116.828521,75.4922575 117.491031,76.2999409 C118.192513,77.155135 119.782041,77.582732 122.259616,77.582732 L122.259616,77.582732 L123.69243,77.582732 L123.69243,82.315789 L95.842105,82.315789 L95.842105,77.582732 L96.171827,77.580516 C98.552233,77.548017 100.106479,77.15802 100.834567,76.4105263 C101.59575,75.6290558 101.976341,74.0734871 101.976341,71.7438202 L101.976341,71.7438202 L101.976341,37.0642224 L101.973364,36.7161692 C101.937643,34.662772 101.580432,33.2379657 100.90173,32.4417504 C100.185323,31.601301 98.498781,31.1810763 95.842105,31.1810763 L95.842105,31.1810763 L95.842105,26.4922531 L115.274647,23.2631579 L115.430066,23.8345465 C115.923459,25.7403939 116.170156,27.658427 116.170156,29.5886458 C118.289527,27.4654051 120.520836,25.8803469 122.864084,24.8334713 C125.207332,23.7865957 127.662519,23.2631579 130.229644,23.2631579 Z M96.066392,68 L96.066392,72 L0.894388,72 L0.894388,68 L96.066392,68 Z M298,68 L298,72 L123.411691,72 L123.411691,68 L298,68 Z M285.465846,13.4210526 L285.465846,25.4298629 L293.646097,25.4298629 L293.646097,30.0656169 C293.956178,30.0908455 294.246597,30.1238454 294.517354,30.1646166 L294.726388,30.198 L285.465846,30.198067 L285.465846,49.0501331 L285.466923,49.4382472 C285.483432,52.3711843 285.689794,54.3242231 286.08601,55.2973635 C286.499452,56.3128144 287.355868,56.8205398 288.655258,56.8205398 C290.604343,56.8205398 292.169517,55.6137721 293.350781,53.2002367 L293.350781,53.2002367 L297.691924,54.6571879 L297.562155,54.9707491 C295.265524,60.3540464 290.509898,63.0456951 283.295275,63.0456951 C279.249447,63.0456951 276.207693,62.067036 274.170013,60.1097176 C272.132334,58.1523993 271.113494,55.2164218 271.113494,51.3017851 L271.113494,51.3017851 L271.113494,30.198067 L265.842105,30.198067 L265.842105,25.4298629 L266.94954,25.474013 L267.359553,25.468984 C270.757215,25.3851686 273.677063,24.2536606 276.119098,22.07446 C278.658815,19.8080914 280.194458,16.9236223 280.726026,13.4210526 L280.726026,13.4210526 L285.465846,13.4210526 Z M222.888705,23.2631579 C227.312123,23.2631579 230.813996,24.0786996 233.394323,25.7097829 C235.97465,27.3408663 237.264814,29.4909307 237.264814,32.1599762 C237.264814,33.6724353 236.756121,34.9995441 235.738734,36.1413024 C234.721348,37.2830608 233.401695,37.8539399 231.779775,37.8539399 C228.565425,37.8539399 226.515908,35.7483596 225.631224,31.5371989 C225.365819,30.2916444 224.967711,29.4019625 224.436901,28.8681534 C223.906091,28.3343443 222.991918,28.0674398 221.694382,28.0674398 C219.069821,28.0674398 217.1014,29.1128159 215.789119,31.2035682 C214.476838,33.2943205 213.820698,36.430449 213.820698,40.6119536 C213.820698,46.3355734 214.609541,50.4503519 216.187226,52.956289 C217.764912,55.4622262 220.234654,56.7151948 223.596452,56.7151948 C228.196807,56.7151948 231.529115,54.4613341 233.593377,49.9536128 L233.593377,49.9536128 L238.105263,51.955397 L237.95787,52.3454553 C236.692245,55.5671521 234.492805,58.069108 231.359551,59.8513232 C228.100966,61.704827 224.304199,62.6315789 219.969249,62.6315789 C214.041869,62.6315789 209.021289,60.9634255 204.90751,57.6271186 C200.793732,54.2908118 198.736842,49.6867083 198.736842,43.8148082 C198.736842,37.6463475 200.978041,32.6789573 205.460438,28.9126375 C209.942835,25.1463178 215.752257,23.2631579 222.888705,23.2631579 Z M261.467836,23.2787185 L261.467836,50.304958 L261.470849,50.6518648 C261.507006,52.6984985 261.868575,54.1186117 262.555556,54.9122044 C263.280702,55.7498856 264.97271,56.1687262 267.631579,56.1687262 L267.631579,56.1687262 L267.631579,60.8421053 L239.894737,60.8421053 L239.894737,56.1687262 L240.937135,56.1687262 L241.266766,56.1662259 C243.644795,56.1295549 245.158944,55.6895035 245.809211,54.8460717 C246.489035,53.9643021 246.828947,52.4505975 246.828947,50.304958 L246.828947,50.304958 L246.828947,37.1665904 L246.82573,36.8101405 C246.789268,34.8245712 246.442874,33.4223352 245.78655,32.6034325 C245.091618,31.736359 243.475146,31.3028223 240.937135,31.3028223 L240.937135,31.3028223 L239.894737,31.3028223 L239.894737,26.6294432 L261.467836,23.2787185 Z M166.926274,0 L166.926274,50.304958 L166.929242,50.6563225 C166.964852,52.7286033 167.32095,54.1545787 167.997538,54.9342487 C168.652198,55.6886516 170.144507,56.0972865 172.474463,56.1601534 L172.781388,56.166 L172.7709,56.1662259 L172.7709,56.1662259 L172.446256,56.1687262 L171.419629,56.1687262 L171.419629,60.8421053 L145.947368,60.8421053 L145.947368,56.1687262 L146.337658,56.1661407 C148.512605,56.1368391 150.063797,55.8584739 150.991233,55.331045 C151.973224,54.7725909 152.46422,53.0972286 152.46422,50.304958 L152.46422,50.304958 L152.46422,13.7556064 L152.461374,13.413094 C152.425331,11.2804974 152.046874,9.8442232 151.326003,9.1042715 C150.567191,8.325375 148.774313,7.9359268 145.947368,7.9359268 L145.947368,7.9359268 L145.947368,3.2184592 L166.926274,0 Z M192.66635,23.2787185 L192.66635,50.304958 L192.669318,50.6518648 C192.704928,52.6984985 193.061026,54.1186117 193.737613,54.9122044 C194.451789,55.7498856 196.118199,56.1687262 198.736842,56.1687262 L198.736842,56.1687262 L198.736842,60.8421053 L173.130674,60.8421053 L173.130674,56.1687262 L172.797377,56.166583 L172.797377,56.166583 L172.781388,56.166 L173.084997,56.158725 C175.143821,56.0920505 176.499494,55.6920038 177.152018,54.9585848 L177.244623,54.8460717 C177.914162,53.9643021 178.248932,52.4505975 178.248932,50.304958 L178.248932,50.304958 L178.248932,37.1665904 L178.245763,36.8101405 C178.209853,34.8245712 177.8687,33.4223352 177.222305,32.6034325 C176.537886,31.736359 174.94587,31.3028223 172.446256,31.3028223 L172.446256,31.3028223 L171.419629,31.3028223 L171.419629,26.6294432 L192.66635,23.2787185 Z M25.5937611,0 C32.5821523,0 38.2639532,0.39911 42.6391639,1.1973301 C47.0143746,1.9955501 51.1506659,3.7471996 55.0480379,6.4522787 C58.9454099,9.1573577 61.9468343,12.6606567 64.0523111,16.9621758 C66.1577879,21.263695 67.2105263,26.0012787 67.2105263,31.1749271 C67.2105263,36.4668303 66.0980581,41.1970232 63.8731216,45.3655056 C61.6481851,49.533988 58.6542269,52.8599049 54.8912471,55.3432561 C51.1282672,57.8266073 47.2308952,59.36392 43.1991311,59.9551941 C39.2707456,60.5313073 32.7338822,60.82675 23.5885409,60.8421053 L23.5885409,60.8421053 L1,60.8421053 L1,55.9197484 L1.3783049,55.9173714 C4.3634589,55.8793407 6.3577665,55.3849409 7.3612278,54.4341722 C8.4065,53.443788 8.9291361,51.4851926 8.9291361,48.5583858 L8.9291361,48.5583858 L8.9291361,12.9489029 L8.9263416,12.5838274 C8.8853549,9.9441071 8.3935153,8.1293762 7.4508226,7.1396348 C6.4652803,6.1049051 4.3150061,5.5875403 1,5.5875403 L1,5.5875403 L1,0.7095289 L8.3019728,0.4434556 L9.0313737,0.4143846 C16.0312462,0.1381282 21.552042,0 25.5937611,0 Z M90.573099,23.2787185 L90.573099,50.304958 L90.576112,50.6518648 C90.612269,52.6984985 90.973838,54.1186117 91.660819,54.9122044 C92.385965,55.7498856 94.077973,56.1687262 96.736842,56.1687262 L96.736842,56.1687262 L96.736842,60.8421053 L69,60.8421053 L69,56.1687262 L70.0423977,56.1687262 L70.372029,56.1662259 C72.7500585,56.1295549 74.264207,55.6895035 74.914474,54.8460717 C75.594298,53.9643021 75.934211,52.4505975 75.934211,50.304958 L75.934211,50.304958 L75.934211,37.1665904 L75.930993,36.8101405 C75.894531,34.8245712 75.548137,33.4223352 74.891813,32.6034325 C74.196881,31.736359 72.5804094,31.3028223 70.0423977,31.3028223 L70.0423977,31.3028223 L69,31.3028223 L69,26.6294432 L90.573099,23.2787185 Z M124.946142,29.8540509 C123.214825,29.8540509 121.550671,30.4512123 119.953681,31.6455352 C118.35669,32.8398581 117.185066,34.1595111 116.438808,35.6044944 L116.438808,35.6044944 L116.438808,51.9711413 L116.766113,52.3014354 C117.86268,53.3774349 119.014753,54.203627 120.222333,54.7800118 C121.550671,55.4140351 122.931247,55.7310467 124.364062,55.7310467 C127.080438,55.7310467 129.110258,54.6767987 130.453522,52.5683028 C131.796785,50.4598068 132.468417,47.2970629 132.468417,43.080071 C132.468417,38.6566529 131.84156,35.3464617 130.587848,33.1494973 C129.334136,30.952533 127.453567,29.8540509 124.946142,29.8540509 Z M24.8322057,5.410158 L24.8322057,46.828909 L24.8330691,47.2030809 C24.8445817,49.6580081 24.9712198,51.3218883 25.2129834,52.1947215 C25.4668352,53.1111964 26.1387959,53.8946345 27.2288655,54.5450361 C28.318935,55.1954376 29.9988367,55.5206383 32.2685706,55.5206383 C37.8831755,55.5206383 42.0866629,53.4807427 44.8790328,49.4009514 C47.6714028,45.32116 49.0675878,39.2162549 49.0675878,31.086236 C49.0675878,24.5230934 48.0372481,19.2977086 45.9765686,15.4100813 C43.9158892,11.5224541 41.2429789,8.8838934 37.9578378,7.4943993 C34.6726966,6.1049051 30.2974859,5.410158 24.8322057,5.410158 L24.8322057,5.410158 Z M254.352339,0 C256.618421,0 258.537037,0.7788965 260.108187,2.3366895 C261.679337,3.8944826 262.464912,5.7755912 262.464912,7.9800153 C262.464912,10.1844394 261.671784,12.0655479 260.085526,13.623341 C258.499269,15.181134 256.588207,15.9600305 254.352339,15.9600305 C252.025828,15.9600305 250.084552,15.1590898 248.528509,13.5572082 C246.972466,11.9553267 246.194444,10.0962624 246.194444,7.9800153 C246.194444,5.8049835 246.995127,3.931223 248.596491,2.3587338 C250.197856,0.7862446 252.116472,0 254.352339,0 Z M185.658503,0 C187.890301,0 189.779891,0.7788965 191.327271,2.3366895 C192.874651,3.8944826 193.648342,5.7755912 193.648342,7.9800153 C193.648342,10.1844394 192.867212,12.0655479 191.304953,13.623341 C189.742694,15.181134 187.860544,15.9600305 185.658503,15.9600305 C183.36719,15.9600305 181.455282,15.1590898 179.922781,13.5572082 C178.390279,11.9553267 177.624028,10.0962624 177.624028,7.9800153 C177.624028,5.8049835 178.412597,3.931223 179.989735,2.3587338 C181.566872,0.7862446 183.456462,0 185.658503,0 Z M83.457602,0 C85.723684,0 87.6423,0.7788965 89.21345,2.3366895 C90.7846,3.8944826 91.570175,5.7755912 91.570175,7.9800153 C91.570175,10.1844394 90.777047,12.0655479 89.190789,13.623341 C87.604532,15.181134 85.69347,15.9600305 83.457602,15.9600305 C81.131092,15.9600305 79.189815,15.1590898 77.633772,13.5572082 C76.077729,11.9553267 75.299708,10.0962624 75.299708,7.9800153 C75.299708,5.8049835 76.10039,3.931223 77.701754,2.3587338 C79.303119,0.7862446 81.221735,0 83.457602,0 Z" id="Combined-Shape"></path>
        </g>
    </g>
</svg>