<?xml version="1.0" encoding="UTF-8"?>
<svg width="364px" height="72px" viewBox="0 0 364 72" version="1.1" xmlns="http://www.w3.org/2000/svg" xmlns:xlink="http://www.w3.org/1999/xlink">
    <!-- Generator: Sketch 64 (93537) - https://sketch.com -->
    <title>Artboard</title>
    <desc>Created with Sketch.</desc>
    <g id="Artboard" stroke="none" stroke-width="1" fill="none" fill-rule="evenodd">
        <g id="Artboard-(1)" fill="#291B1B" fill-rule="nonzero">
            <path d="M90.0498688,5.99592602 C89.1042776,6.29594605 88.5216373,7.44509688 87.4177307,7.51189698 C86.9720655,7.53886246 86.5083685,7.1116768 86.079577,6.99096232 C85.890161,5.79129681 84.7769904,4.91324362 84.5907176,3.67417468 C83.9253629,3.78202003 83.5586072,4.27928941 82.9364294,4.50337159 L82.9364294,5.3325685 C83.5875572,5.53013295 84.6471288,7.05656837 83.9873987,7.71279481 C83.4619967,8.23543762 82.5627256,7.31315507 82.130791,7.04291979 C81.4330122,6.6062647 80.0267018,6.88877209 79.4802904,7.5412008 C78.6501685,8.53238962 78.1639732,10.2264721 77.8999488,11.4686256 C77.3891046,13.8711076 76.9958803,16.1437539 77.356846,18.599719 C77.4786016,19.4290818 77.6087941,20.2586104 77.7384903,21.0866464 C77.7864647,21.3924542 77.7881189,21.8430398 78.0733182,22.0377353 C78.391107,22.254819 78.9409924,22.107222 79.2969952,22.0823461 C78.9586933,22.5055682 78.2456951,22.8692539 78.0953203,23.4032567 C78.0069813,23.7170249 78.1851481,23.99663 78.3173258,24.2664507 C78.6354454,24.9162094 79.1783828,26.6880374 79.9934506,26.8082709 C80.7843658,26.9250219 81.7231744,26.161829 82.4401429,25.8966518 C82.4401429,27.811765 82.1081272,29.5232274 81.6105173,31.3693514 C81.2378062,32.7524519 80.6505339,34.0644072 80.6204258,35.515336 L81.4475699,35.515336 L82.6055717,31.7010302 C82.6775332,32.7877757 82.1564325,33.9834776 81.8348388,35.0178178 C81.7072932,35.4279386 81.360389,36.1669189 81.6323539,36.5762105 C81.8335154,36.8790332 82.2953927,36.831769 82.6055717,36.842051 C82.9528068,35.1599422 83.6782122,33.5761761 83.9290023,31.8668696 C84.6423314,32.3055148 84.589725,32.9073459 84.6289316,33.6911028 C84.6552348,34.2146577 84.4879863,34.6698868 84.4529154,35.1836572 C84.3571321,36.5851658 84.4285973,37.7364228 83.935454,39.0934865 C83.7084857,39.7180376 83.7385937,40.5659744 83.0664564,40.9135737 C82.205234,41.3590183 80.7947878,40.601464 79.9587105,40.3248439 C78.4830854,39.8366128 76.9546885,39.4800581 75.4921323,38.9692728 C74.5113048,38.6268145 73.3801025,38.0168572 72.3489847,37.9064082 C71.2513644,37.7889939 69.2268465,38.5918224 68.3064005,37.7370862 C68.1024268,37.5475318 68.0127644,37.2616247 67.9219439,37.0070612 C67.189756,34.9541355 70.0604423,35.2975889 71.1377148,34.4970822 C71.7598926,34.0348878 71.1380457,33.2078468 71.7188663,32.6562651 C73.3954874,31.0643728 75.944911,30.6219134 76.4891718,28.0525638 C77.0120923,25.5837129 73.8254369,24.9316325 73.2145083,23.0624568 C72.6378234,21.2982575 75.0525879,19.8892861 74.9123043,18.1022009 C74.8236344,16.971508 74.0568718,15.8074316 73.6188163,14.7854133 C73.1448627,13.6796792 72.8879518,12.5397822 72.3418712,11.4609473 C72.0695754,10.9229477 71.4814759,10.7387997 71.2103381,10.2433877 C71.0336601,9.92034916 71.1516108,9.4906759 71.1909829,9.14687428 C72.6545317,9.58770852 72.3400515,8.77179535 73.1304704,7.86392424 C73.603266,7.32075051 74.4443061,7.20530972 74.8472908,6.60298108 C75.3642558,5.83038515 74.0687827,3.73021181 73.5650519,3.06071822 C72.6594946,1.85717207 70.4907227,1.14170781 69.0404082,1.6118011 C68.427329,1.81052146 67.9639628,2.3060827 67.4562618,2.67875696 C66.9694048,3.03624033 66.098422,3.1799899 65.9571458,3.85741061 C65.7424192,4.88692491 66.9842934,5.53177476 67.38612,6.32760479 C66.3826287,6.38287905 66.2362242,6.92315059 65.4873279,7.44241028 C65.0381887,7.75377372 64.429576,7.83982778 63.9121147,7.98599861 C63.6019356,7.33235927 62.9086234,6.71057767 62.7537821,6.01076865 C62.6728874,5.6456235 62.8723945,5.20042768 62.9195417,4.83505035 C62.0526947,4.35589063 62.1110911,3.0916141 62.0923976,2.18162024 C61.4551658,2.26939903 60.8822858,2.48338158 60.2726806,2.67913839 C60.2935246,3.331252 60.5089129,3.75498821 60.768967,4.33753221 C60.1317352,4.23585608 59.7560464,4.0869489 59.4455365,3.5083353 C58.020698,3.50944642 57.0752723,3.97008189 56.4678176,5.3325685 C56.0234758,5.24951613 55.5960077,5.18621524 55.1443871,5.16672911 C54.7940088,6.86868894 54.4259297,8.63909068 53.9475095,10.3053287 C53.7170672,11.107643 53.2586639,11.8161752 53.0416213,12.6295013 C52.54732,14.4830383 52.5974449,16.9166152 52.9739609,18.7655584 C53.2144944,19.9463348 52.5430188,22.3165113 54.1518141,22.5798642 C54.2303928,23.1647797 54.2916015,24.0107264 54.6461154,24.5004501 C55.3533237,25.4770782 56.9874296,25.0847022 57.956677,24.9016156 C58.1118493,25.6293188 58.6561101,26.336292 58.6925045,27.0724531 C58.7386591,28.0072897 58.0628824,29.2437881 58.4021769,30.1515929 C58.7839866,31.1731635 60.5196658,30.8389971 60.9519313,31.8766541 C61.1646728,32.3869419 61.086425,32.9869488 61.1023061,33.5252634 C61.1185181,34.0736942 61.3555776,34.6411966 61.2722015,35.1836572 C61.0768301,36.4531577 60.5282681,37.6962897 60.4571337,38.9954754 C60.394767,40.1336311 61.1181873,41.1973249 60.9464722,42.3147506 C60.7931196,43.3136012 59.8968263,44.919424 58.9467686,45.3199261 C58.0577541,45.6945573 56.6554139,46.1371826 56.6332465,44.8023414 L55.4752447,45.1340201 L55.4752447,45.963217 C54.7544713,45.9716749 54.1794407,46.3053437 53.4900988,46.3637192 C52.3899971,46.4570867 51.0932006,46.0068328 50.0160935,45.7973777 C50.1792064,45.5521012 50.1815224,45.5978729 50.1815224,45.2998595 C49.5340339,45.3016838 48.8344354,45.4575728 48.1963765,45.3650344 C46.4133846,45.1061591 44.9189006,44.3048232 43.068083,44.3048232 C43.4647813,44.1872431 43.8179718,44.1726492 44.2262501,44.1214049 C44.7506595,44.0557325 45.8357072,43.3187423 44.8624894,42.9502472 C43.9767835,42.6149199 42.5582313,43.0293525 41.579389,42.8819213 C40.9003037,42.7795984 39.7866368,41.8981621 39.1671059,42.1046322 C38.6082873,42.2908698 38.5077066,43.3213957 38.4360759,43.8073051 C37.2519364,42.9427844 36.2075842,43.1988404 36.1200724,44.8023414 C35.2173273,44.8104675 34.7685189,45.1161095 33.9694977,45.4683523 C33.1577384,45.8262337 32.565007,45.5416533 32.4806383,46.6265746 C32.1962661,46.6607375 31.7745881,46.8152998 31.4966676,46.7131427 C30.8817687,46.4866061 30.7694425,45.7613905 29.9983788,45.6925672 C28.6397119,45.5713386 26.265312,47.8247641 25.20177,46.1290564 C24.2622998,46.2753268 23.2980152,46.6305547 22.3894801,46.920442 C21.2399152,47.2871128 18.1918891,47.8635705 19.2835539,45.8123032 C19.3957146,45.6015214 19.5495634,45.4108061 19.7037431,45.2300411 C21.0695235,43.6286961 22.8741865,42.4253655 24.2752032,40.8497255 C24.8110272,40.2470652 25.4902779,39.6215191 25.7304806,38.8256559 C26.1136137,37.5559896 25.1321245,36.3219787 24.7228536,35.1836572 C24.4920804,34.5418588 24.5574248,33.8582689 24.4381506,33.1935846 C24.2082045,31.9116462 23.8215974,30.6530912 23.5474818,29.3792789 C23.4096796,28.7391389 22.9564046,27.8719647 23.276344,27.24078 C23.7233327,26.359012 25.3048322,26.0301525 26.194343,25.8966518 C26.9217335,23.5596433 25.5754738,19.9660697 24.2614726,17.9584182 C23.9713105,17.5151295 23.5135689,17.3962227 23.1593858,17.0375121 C22.8252196,16.6990339 22.8139704,16.1946168 22.6265396,15.7780283 C22.4563133,15.3994667 22.1181768,15.0538575 22.0187541,14.6484963 C21.8721841,14.0502639 22.661445,13.747209 23.020591,13.4220975 C23.7282955,12.7813273 24.1516279,11.8871047 24.8012669,11.2330508 C25.0116923,11.0212407 25.4836608,10.9326991 25.5463583,10.6023139 C25.6227864,10.2000041 25.0853082,9.68620053 24.9589205,9.31029241 C24.762722,8.72696896 24.7030021,8.16192102 24.3053113,7.6614841 C23.2869314,6.38012612 21.0256848,6.08919409 19.5796715,6.78661503 C18.312983,7.39746781 18.1518553,8.87295737 16.7649001,9.31271366 C17.1496875,10.0316605 17.8019734,10.229026 18.5846171,10.30775 C18.6618724,10.9206094 18.7449177,11.5125399 18.7500459,12.1319832 C17.5088335,12.3370104 16.6481073,14.0935148 15.3004249,14.1921892 C14.7398693,14.2332179 14.7365938,13.3377681 14.6846657,12.9611801 C14.4960438,11.5935358 14.6082541,10.175576 14.7797542,8.81519552 C14.0130412,8.31698084 14.2652209,7.1481283 14.2834677,6.32760479 C13.8379679,6.32888175 13.2540869,6.2549008 12.8663382,6.52312942 C12.2368816,6.95859047 12.5453567,7.62698951 13.125466,7.82015922 C12.9543464,8.56663545 13.1046385,9.22292822 13.1230342,9.97607119 C13.1513721,11.1356036 13.125466,12.2988176 13.125466,13.4586982 C11.5240819,13.0280133 11.1629177,11.679507 9.81688949,10.8623334 C9.09768768,10.4257281 8.3102134,10.4736723 7.50088596,10.4735893 C7.36817896,11.3611783 6.91245564,12.1042548 6.67845657,12.9611801 C6.08650261,15.1291651 5.56384679,17.2917438 4.87253628,19.428916 C4.58646021,20.3133374 3.82972261,21.074706 3.62786636,21.9637709 C3.51168569,22.4755512 3.73001865,23.0775482 3.84166657,23.5749005 C4.09273789,24.6933213 3.69992715,28.0300097 5.35031126,27.8867244 C5.56564996,28.7500843 6.13679297,29.3862441 6.34645747,30.2109634 C6.48789911,30.7671887 6.35006381,31.6668673 6.7735616,32.0990447 C7.27431465,32.6103275 8.2296661,32.2720152 8.65442115,32.9139794 C9.28733528,33.8707068 8.64017773,34.9926103 9.81688949,35.6811754 C9.45886843,36.571567 9.71766528,37.0831815 10.6440336,37.3395692 C10.7369715,37.0408925 10.7803635,36.8218186 10.8094624,36.5103723 C11.7231258,36.800757 12.6632909,36.9665964 13.6217524,37.0078904 C13.408465,37.3244778 13.1886763,37.6135359 13.164656,38.0097261 C13.1353255,38.4933138 13.4296068,38.9714287 13.2713576,39.4482169 C13.0201043,40.2051079 12.5275566,40.8464088 12.3112087,41.6513931 C11.9327572,43.0597012 11.9674642,44.6754742 11.9674642,46.1290564 C11.7697437,45.9262349 11.7496937,45.8935645 11.6366065,45.6315383 C10.5765221,45.6315383 8.24680453,45.2723302 7.50088596,46.1290564 C6.36635855,45.6247389 5.25636423,45.4817853 4.02688068,45.7715067 C3.52669009,45.8894185 3.05126419,46.1721747 2.53802127,46.2212631 C1.6476486,46.3065046 0.657854867,45.9141286 0.156407845,47.0204431 C-0.122456349,47.6357072 0.0565889202,48.6174764 0.0565889202,49.2800047 L0.0565889202,54.2551861 L0.0565889202,72 L364,72 L364,45.6315383 C363.31347,46.1204328 362.934638,46.9517856 362.258034,47.4030346 C361.822957,47.6940827 361.296893,47.6439992 360.856852,47.9532896 C360.765867,47.7187927 360.703004,47.4940804 360.544192,47.2922539 C359.472213,45.9318734 358.092537,47.1536121 356.871672,47.5310626 C356.257931,47.7209487 355.53997,47.6687093 354.901415,47.7874503 C354.732677,47.4894369 354.626803,47.2624028 354.229774,47.2813085 C353.789733,47.3022042 353.334804,47.5854579 352.916269,47.7151443 C351.981596,48.0051974 351.071737,48.205863 350.103979,48.3317351 C349.574607,48.4003926 348.419913,48.6489858 348.429839,47.7776657 C348.441419,46.7060116 349.711913,45.7685216 350.413331,45.1346835 C351.54321,44.1139421 352.618497,42.9903803 353.619341,41.8452594 C354.089159,41.3061155 354.686357,40.7062745 354.878255,39.9929993 C355.27363,38.5289692 354.236391,37.2813596 353.751684,36.0128541 C353.546553,35.4765296 353.606107,34.9090272 353.493615,34.3544603 C353.276904,33.300551 352.955972,32.2532754 352.711137,31.2035121 C352.540745,30.4696728 352.070928,29.6268771 352.047768,28.8819266 C351.998139,27.295507 354.185108,27.5348133 354.924575,26.6414365 C355.53997,25.8983102 355.012252,24.4062533 354.815392,23.5749005 C354.463028,22.0974374 353.650773,20.0161532 352.7161,18.8156419 C352.474574,18.5055223 352.107322,18.406682 351.826093,18.1481384 C351.415829,17.7677029 350.464614,16.1513493 350.496045,15.5846596 C350.517551,15.1957994 350.952629,15.006245 351.215661,14.7936057 C351.834364,14.2929035 352.135445,13.5366261 352.916269,13.2928588 C352.952663,12.1954167 353.783116,12.1906737 354.074271,11.3027862 C353.260361,10.5906388 353.237201,9.46376017 352.529165,8.65907432 C351.432372,7.41236018 348.764005,7.19728309 347.486895,8.25344778 C346.512519,9.06135091 346.373559,10.1306667 345.141114,10.6394287 C345.572883,11.443302 346.864882,11.402207 347.070014,12.3062638 C347.362823,13.593509 345.690338,14.3136666 344.879737,14.8652649 C344.558805,15.0845875 344.017852,15.7184588 343.579466,15.4624691 C343.146043,15.2088344 343.177474,14.3811964 343.155968,13.9562164 C343.091451,12.6387551 343.051748,11.4602176 343.155968,10.1419106 L342.659682,10.1419106 C342.654719,9.55178771 342.735779,8.39852407 342.325516,7.9267442 C341.951646,7.49799964 341.025245,7.85544984 340.896211,8.35479222 C340.739053,8.96035473 341.265117,9.5487031 341.329634,10.1443318 C341.500026,11.7397067 341.375954,13.3759941 341.667109,14.9512526 C340.226224,14.5343656 339.81596,13.3062918 338.618256,12.5753713 C337.744791,12.041667 336.851476,12.1145368 335.8771,12.1319832 C335.731523,13.2513824 335.22531,14.2061197 334.932501,15.2829314 C334.485844,16.9303798 334.335303,18.6367012 333.777808,20.2581129 C333.150833,22.0782001 332.270752,23.4418973 332.609881,25.3991337 C332.843135,26.7464128 332.662818,29.5789495 334.388241,29.7109576 C334.482535,30.7504389 335.233582,31.4950577 335.471799,32.5302271 C335.572711,32.9718574 335.528045,33.5211174 335.948234,33.8042053 C336.45941,34.1473269 337.278282,34.0227816 337.862246,34.0227816 C337.865555,35.1985828 337.784494,36.6657638 339.020248,37.1737298 C338.65465,38.0904899 338.891213,38.5759018 339.847392,38.8321236 L340.012821,38.0029267 C340.878013,38.2120502 341.769675,38.3271427 342.659682,38.3346055 C342.519067,38.696467 342.272578,39.0976325 342.28085,39.4958128 C342.290776,39.9487202 342.63983,40.3288241 342.545536,40.7940035 C342.39665,41.5273453 341.815995,42.2139203 341.627406,42.9779423 C341.286623,44.3658521 341.336251,46.029387 341.336251,47.4557715 C340.480984,46.6486312 338.79361,47.1348723 337.703434,47.2839619 C336.530544,47.4441627 335.377505,47.0584203 334.222812,47.2247572 C333.461839,47.3343771 332.81005,47.7992248 332.072237,47.9552797 C331.623925,48.0501398 331.190501,47.8146479 330.748807,47.9173025 C330.274026,48.0277515 329.931588,48.5123342 329.425376,48.511505 C328.809981,48.5103441 328.355051,47.8522934 327.771088,47.6935852 C326.689183,47.3990544 325.251607,47.4444944 324.131654,47.4585908 C322.912443,47.4740138 321.69985,47.59773 320.492219,47.6561055 C319.885096,47.685459 319.08442,47.8934216 318.609639,47.3622381 C318.182833,46.8849523 318.579862,46.0116421 318.674157,45.4656989 C318.882597,44.2622025 319.011632,42.9829175 319.387155,41.8172325 C319.592287,41.1843894 320.070376,40.646904 320.206028,39.9929993 C320.353259,39.2787291 319.792456,38.5528501 320.166325,37.8659434 C320.649377,36.9808586 322.452551,36.7259635 322.565043,35.6727176 C322.637831,35.0068724 321.749479,34.4733672 321.54931,33.8567763 C320.717203,31.2884218 319.635298,28.7913783 318.770105,26.2283306 C318.573245,25.6405958 318.237425,24.8644675 318.275473,24.238258 C318.306905,23.7140397 318.654305,23.2841841 318.646034,22.7457036 C318.631145,21.9067222 318.124933,21.1078739 318.03891,20.2581129 C317.921456,19.0995589 317.81889,17.9355323 317.708052,16.7754858 C317.656769,16.2345675 317.74941,15.6487233 317.572401,15.12618 C317.072806,13.6477385 314.765074,14.6453619 314.487153,12.7953407 C314.334959,11.7775346 315.547552,11.3572645 315.95947,10.5913187 C316.215884,10.1110976 316.244007,9.43860234 316.733677,9.10924532 C317.089349,8.8695245 318.098464,9.14999206 318.18945,8.59907363 C318.272165,8.09871963 317.542624,7.6119313 317.38712,7.15026763 C317.20184,6.59896777 317.188606,6.02622488 316.851131,5.52668349 C315.904878,4.12001727 313.951164,3.28168261 312.386207,4.07111124 C311.714566,4.40945675 311.224897,4.98921464 310.683945,5.49533985 C310.119832,6.02508059 309.383674,6.1751984 309.24306,6.99096232 C309.645052,7.08831003 310.174424,7.17880858 310.420913,7.55796716 C310.677327,7.95054215 310.40437,8.41711466 310.30015,8.81456533 C310.027192,9.86026555 308.998225,11.2423212 307.7542,11.2517243 C307.329048,11.2549416 306.907205,10.8461475 306.624321,10.5662438 C305.83688,9.78447695 305.168548,8.5141307 304.776481,7.48848046 L304.280195,7.48848046 C304.018817,7.92042571 303.773983,8.02238377 303.287622,8.15183799 L303.287622,9.14687428 C303.926177,9.34079027 305.05771,10.9173424 304.205752,11.4741315 C303.6069,11.8654129 302.778101,10.975154 302.295049,10.7229786 C301.711085,10.4187131 300.624218,10.5874215 300.083266,10.9749384 C299.113853,11.6694903 298.566283,13.8442748 298.308214,14.9512526 C297.879754,16.7806269 297.429787,18.69375 297.50423,20.5897916 C297.57371,22.3705749 298.122934,24.1205121 298.159328,25.8966518 L299.648188,25.8966518 C299.290862,26.2603376 298.586135,26.5552 298.447175,27.0749407 C298.232117,27.8699747 299.232961,29.1885636 299.575399,29.8736461 C299.716014,30.1560705 299.87648,30.4816132 300.199066,30.5885796 C300.935224,30.831866 302.079991,29.9161009 302.791335,29.7109576 C302.791335,30.5212488 302.887284,31.4008609 302.728472,32.1985484 C302.419121,33.7632429 301.767331,35.2684012 301.461288,36.842051 C301.277662,37.790984 300.548121,38.8953084 301.633334,39.4954812 C301.957574,38.7432337 302.1991,37.9505215 302.460478,37.1737298 C302.465441,38.087339 301.545656,39.4158783 301.927797,40.2717753 C302.220606,40.9261775 302.918716,40.4412632 303.085799,39.9832148 C303.582085,38.6168641 304.217332,36.9699132 304.280195,35.515336 C305.267805,36.0609476 305.019662,37.5369181 304.84927,38.5004449 C304.68715,39.4200242 304.880701,40.3822243 304.723544,41.3197144 C304.525029,42.4975056 304.02378,43.6290278 303.783908,44.8023414 C302.923678,44.7021744 301.931106,44.9622105 301.137047,45.2998595 C300.928607,44.7456243 300.453826,44.12439 299.806999,44.0597126 C298.769761,43.9562289 297.421516,44.9108003 297.166755,43.3097869 C296.696938,43.3094553 296.126208,43.3824246 295.701056,43.1394699 C295.196498,42.8497485 295.100549,42.3394607 294.519894,42.1489113 L294.354465,42.9781082 C293.934276,41.5921885 294.078199,40.4051102 294.189037,38.997963 L293.196464,39.1638024 C293.328807,40.2075955 293.505816,41.2618364 293.527321,42.3147506 L293.031035,42.3147506 L293.031035,41.6513931 L292.36932,41.6513931 C292.159225,40.3565192 290.777894,39.7336265 290.339508,38.5004449 C289.734038,36.8005912 290.438765,34.7715464 289.887887,33.0277453 C290.268373,32.9182913 290.519825,32.81431 290.794437,32.5056829 C291.828367,31.3370128 291.383364,30.2079783 291.002877,28.8817607 C290.723303,27.9051326 290.331236,27.130331 291.211318,26.39417 C290.819251,25.1944879 290.541331,24.5881791 291.873033,23.9065793 C291.869725,22.8528358 291.945822,21.6183275 291.811824,20.5897916 C291.737381,20.0115097 291.426375,19.4965784 291.298995,18.9313978 C291.11206,18.1056835 291.338698,17.2604002 290.384174,16.9413252 C290.384174,16.3381176 290.425531,15.7169497 290.354396,15.117092 C290.304768,14.6990607 290.069859,14.2213272 290.184005,13.8000952 C290.404025,12.9903015 291.389981,13.0861898 291.542175,12.1319832 C292.347814,12.0655479 293.433027,11.8585472 293.720873,10.9644573 C293.935931,10.2942009 293.456187,9.70666511 293.176612,9.14687428 C292.513243,7.81986071 291.932587,6.8218559 290.384174,6.37750586 C288.961486,5.96925905 288.117799,6.50619722 286.882045,7.10779616 C286.268305,7.40647289 285.590046,7.60383833 285.376643,8.33316677 C285.161586,9.06586174 286.020161,9.98034984 285.629749,10.5567744 C285.449432,10.824207 285.083834,10.9352364 284.837345,11.1286383 C284.425427,11.4516934 284.165704,11.9247834 283.712429,12.2060636 C283.313746,12.4543417 282.842274,12.5338949 282.450207,12.8000837 C281.474177,13.4616833 280.304595,14.9148177 279.738829,15.9462889 C278.91003,17.4579149 279.881098,19.2030427 279.786803,20.755631 C279.720632,21.8443666 278.900105,22.5752207 278.30787,23.4090611 C278.111009,22.9098846 277.677586,22.2982689 277.705709,21.7506673 C277.745412,21.0300952 278.430287,20.5090278 278.417053,19.7605947 C278.395547,18.5960706 277.700746,17.3696883 277.369888,16.2779677 C277.078733,15.3245903 277.043993,14.1932174 276.597336,13.2959269 C276.153986,12.4043412 275.283831,12.5145912 274.580758,12.0051658 C273.958746,11.5542651 273.57826,10.4608529 273.179576,9.81023181 C274.569178,9.70515597 274.536092,8.67589043 275.227585,7.72790278 C275.644466,7.15625443 276.847133,6.97941989 277.025796,6.32095463 C277.176336,5.76265635 276.412055,5.48004946 276.153986,5.10389257 C275.402939,4.00776059 275.204425,2.89063335 273.675863,2.57625163 C272.459961,2.32601659 270.896658,2.52606864 269.914011,3.32854882 C269.270493,3.85435917 268.924747,4.55690454 268.238217,5.06692697 C268.041357,5.21336315 267.831262,5.38752767 267.872619,5.66373316 C267.975185,6.35025845 269.164619,6.56581648 269.705571,6.65928355 C269.677448,9.06813374 267.318433,10.5244357 266.191863,12.4636619 C265.422619,13.7884201 265.56985,15.3500964 265.149661,16.7754858 C264.592166,18.6688741 263.551619,20.1954256 263.634333,22.2481854 C263.697196,23.7851848 265.601282,23.9292993 266.226603,25.082878 C266.554152,25.6860358 266.249763,26.4207043 266.564077,27.0293348 C266.787406,27.4600197 267.171201,27.7814164 267.39453,28.2208908 C267.687339,28.798841 267.770054,29.469993 268.095948,30.0277108 C268.840378,31.3011915 269.846185,32.3821326 270.261412,33.8569422 C270.430149,34.4551248 270.302769,35.0712181 270.325929,35.6811754 C270.350743,36.3909679 270.602195,37.141557 270.569109,37.8370873 C270.542641,38.3926493 270.282917,38.9420751 270.201857,39.4954812 C269.755199,39.4954812 269.02235,39.3679507 268.646826,39.665964 C267.925557,40.2391049 268.456583,42.2737883 268.712998,42.9781082 C263.963536,41.7047934 259.262049,40.1837146 254.486119,39.0148786 C252.768968,38.5948075 251.124605,37.7949641 249.357826,37.5825239 C247.973186,37.4158553 246.459513,37.671248 245.056676,37.671248 C245.016973,37.0704119 244.504144,36.2718953 244.677844,35.7050562 C244.816804,35.2548023 245.334597,35.1483334 245.718391,35.0037215 C246.381761,34.7541332 247.597663,34.5539651 248.098912,34.0488183 C248.563767,33.5813171 248.014543,32.9444939 248.333821,32.440508 C248.792059,31.7192725 249.986455,31.2449719 250.681256,30.7816167 C251.435612,30.2779625 251.989798,29.5738085 252.831831,29.2134395 C252.869879,27.9054643 253.549792,27.0072782 252.793782,25.7314758 C252.092364,24.5450609 250.107218,23.8876736 249.735003,22.5709089 C249.222174,20.7594453 251.680446,19.3459963 251.382674,17.5897572 C251.185814,16.4279197 250.34709,15.3529985 249.888852,14.2878951 C249.443848,13.2550972 249.18578,12.1370413 248.633247,11.1434809 C248.318933,10.5788642 247.448777,10.2295733 247.283348,9.6194336 C247.083179,8.87843007 248.085678,9.05504901 248.433078,8.80483055 C248.886353,8.47806064 248.929365,7.66188212 249.316468,7.23486229 C249.778015,6.7264485 250.661405,6.61835439 250.974065,5.97391914 C251.32312,5.25279975 250.540642,4.71587817 250.252795,4.1435333 C250.039392,3.71609887 249.963295,3.2538216 249.685375,2.85162793 C248.73085,1.46336159 246.304009,0.72072786 244.727473,1.39017335 C244.158398,1.63202853 243.801071,2.1022661 243.326291,2.47094363 C242.831658,2.85429794 242.125277,2.97889307 241.969774,3.67493754 C241.749754,4.65806656 242.982199,5.25173838 243.402388,5.99592602 C242.365149,6.2781349 241.901948,7.19494475 240.920956,7.47556157 C239.494959,7.88294601 238.747221,5.9302868 238.93581,4.83505035 C238.088814,4.36670335 238.126863,3.07342152 237.943237,2.18162024 C237.278213,2.23661258 236.742223,2.45192185 236.12352,2.67913839 C236.16984,3.29896308 236.49408,3.74848731 236.619806,4.33753221 C236.125174,4.11014983 235.746342,3.97827435 235.461804,3.5083353 C234.834829,3.50881623 234.209508,3.46380742 233.67021,3.84538726 C233.205355,4.1755403 232.942323,4.74375577 232.455963,5.03876745 C232.098636,5.25469032 231.604004,5.12366063 231.302924,5.43494115 C231.001843,5.74554173 231.02004,6.26561403 230.922437,6.65928355 C230.723923,7.44411843 230.56842,8.18535413 230.422842,8.9810349 C230.171391,10.3418797 229.506367,11.6051612 229.238372,12.9611801 C228.988575,14.2200502 229.180472,15.663085 229.198669,16.9413252 C229.215212,18.1363638 229.484861,19.2386982 229.623821,20.4239522 C229.691647,20.9927813 229.55765,21.6906334 229.794213,22.2236412 C229.972876,22.6248067 230.275611,22.6820213 230.664368,22.7457036 C230.963795,24.205256 231.220209,24.9860278 232.814943,25.1601592 C233.344315,25.2180371 234.097017,24.8954795 234.51886,25.3032785 C235.369164,26.1260077 235.387361,27.3109301 235.268253,28.3842426 C235.212007,28.8978471 234.965518,29.5245542 235.188847,30.0247257 C235.42541,30.5532558 236.118557,30.8076535 236.619806,31.0069924 C236.955627,31.1406589 237.255053,31.179797 237.612379,31.2035121 C237.752994,31.99241 237.743068,32.7408431 237.853905,33.5227758 C237.92504,34.0269275 238.236046,34.5103493 238.196343,35.0242856 C238.100394,36.2811823 237.547862,37.5350938 237.48169,38.8321236 C237.42379,39.9586706 238.065654,41.0162283 238.007754,42.1489113 C237.888645,44.4139455 235.863796,45.7031809 233.807516,45.7973777 C233.827368,44.8127893 234.207854,43.9432934 234.303803,42.9781082 C233.425376,43.618414 233.746307,44.9663565 232.649514,45.2998595 L232.649514,46.1290564 C231.939825,45.9832836 231.513018,46.3322097 230.829797,46.4400053 C229.809101,46.6010353 227.880201,46.4283965 227.355792,45.4656989 C226.649411,45.467689 225.901673,45.6600627 225.205217,45.5902443 C224.078647,45.4773077 223.067877,45.062875 221.896641,45.062875 C221.061225,45.062875 219.881718,45.4874239 219.090968,45.1973708 C218.202615,44.8705014 217.985903,42.7608586 216.94701,42.8895499 C215.525977,43.0656714 216.545018,45.5187675 215.722837,46.1018588 C213.701297,47.5373645 210.756664,46.3131381 208.827764,47.7874503 C208.559769,47.4574299 208.308317,47.0416705 207.957608,46.7937407 C206.773138,45.9590711 205.355413,47.3823046 204.195757,47.5837995 C203.353724,47.7302357 202.663886,47.1478078 201.879753,47.2529499 C200.978166,47.3738468 200.098085,47.866224 199.218003,48.0907705 C198.16753,48.3592644 197.158415,48.2930945 196.089744,48.2849684 C196.65882,45.5446384 199.590218,43.82704 201.338801,41.8237002 C201.883062,41.2009734 202.490186,40.6444164 202.756526,39.8271599 C203.161827,38.5825354 202.134514,37.4447114 201.73583,36.3445329 C201.267667,35.0481665 201.140286,33.5426765 200.814392,32.1985484 C200.548051,31.1031792 199.988902,29.9985231 199.846633,28.8819266 C199.591873,26.8984876 203.011286,27.5706346 203.024521,25.5648072 C203.039409,23.4853472 201.803656,20.6577858 200.662197,18.9534544 C200.362771,18.5063515 199.858213,18.4033652 199.520738,18.0177887 C198.921886,17.3350279 198.369354,15.9820937 198.07489,15.117092 C199.373507,14.7532902 199.767227,13.5710378 200.88718,12.9611801 C200.811083,12.6009438 200.703554,12.304738 200.556323,11.9661438 C201.007943,11.9466576 201.43475,11.8833568 201.879753,11.8003044 C201.732522,11.2794858 201.378504,10.9486528 201.171718,10.4587467 C200.862366,9.72434359 200.807774,8.96798334 200.182454,8.3865173 C198.996329,7.28401709 196.549637,7.17625466 195.270872,8.14236856 C194.635625,8.6236842 194.43711,9.33632919 193.947441,9.92655155 C193.609966,10.3323439 193.203011,10.4956294 192.946597,10.9711075 C193.558683,11.2576282 194.088056,11.4371161 194.766314,11.4686256 C194.786165,11.9158115 194.959866,12.4958679 194.817597,12.926503 C194.506591,13.8729982 193.361823,14.2847773 192.630628,14.7857947 C192.165773,15.1040405 191.778669,15.4904296 191.292309,15.7804496 C191.03424,14.6468876 190.751356,13.4607712 190.662025,12.2978225 C190.617359,11.7348144 190.719925,11.2015081 190.630593,10.6394287 C190.925057,10.476873 190.893625,10.4889129 190.961451,10.1419106 C190.306353,9.50064285 190.306353,8.5364361 190.299736,7.65431984 C189.818338,7.65602799 189.120228,7.56556261 188.815839,8.03871895 C188.480019,8.56275481 188.903516,9.26843455 188.989539,9.81023181 C189.240991,11.4132353 189.459357,13.1634378 189.472592,14.7854133 C187.783563,14.5212311 187.330288,12.8783267 185.833157,12.2312878 C185.310402,12.0055638 184.438592,11.781747 183.919146,12.1365935 C183.489031,12.4310413 183.416242,13.1649801 183.254122,13.6245376 C182.78265,14.9624468 182.531198,16.2234729 182.249969,17.6046828 C181.970394,18.9667216 181.603142,20.284813 181.101893,21.5848279 C180.863676,22.2017504 180.448449,22.7574782 180.302872,23.4090611 C180.152332,24.0780572 180.418672,24.7415806 180.517929,25.3991337 C180.693284,26.5689647 180.653581,27.9062935 181.07377,29.0232217 C181.239199,29.4636911 181.63292,29.5039901 181.937309,29.8078078 C182.269821,30.141145 182.522927,30.7051647 182.776033,31.1079886 C183.427822,32.1474698 182.958004,33.7355477 184.509727,33.9872919 C184.833967,34.0401947 185.174751,34.0217865 185.5023,34.0227816 C185.656149,35.2211369 185.679309,36.5440377 186.82573,37.1737298 C186.284778,37.9656129 186.800916,38.5331152 187.652874,38.6662842 L187.818303,37.8370873 C188.683496,38.1122149 189.55696,38.2954674 190.465164,38.3346055 C190.283193,38.6986229 190.04663,39.0722591 190.074752,39.4958128 C190.099567,39.8915056 190.379141,40.2357882 190.327859,40.6414313 C190.230256,41.3979905 189.586737,42.1887127 189.408074,42.9781082 C189.097068,44.3519216 189.141734,45.8852725 189.141734,47.2899321 C187.591666,46.4567551 186.106115,47.1902626 184.509727,47.3771636 C183.570091,47.4871151 182.660233,47.0172922 181.697437,47.1781564 C181.047302,47.2867812 180.508004,47.6862882 179.87772,47.8219448 C179.434371,47.9174683 179.014181,47.6579297 178.582412,47.7537849 C178.137409,47.8524593 177.861142,48.2959138 177.394633,48.3551185 C176.493046,48.4693818 175.895848,47.4942462 174.914855,47.6216109 C174.71634,46.4239189 173.561647,46.1066681 172.598852,46.6265746 C172.354017,46.2245799 170.883355,44.7076471 170.451585,45.2373381 C169.927176,45.8809607 170.664989,46.8806405 170.944563,47.4557715 C169.315089,47.5259215 167.774947,47.5854579 166.147127,47.4557715 C166.170287,46.2968859 166.570625,45.26636 166.755906,44.1389838 C166.903137,43.2354909 166.865089,42.3885492 167.215798,41.5137464 C167.434164,40.9668082 167.913907,40.5770856 168.061139,39.9928335 C168.236493,39.2878503 167.773293,38.5438948 168.004893,37.8676018 C168.350639,36.8563132 170.340748,36.6078858 170.342402,35.5093658 C170.344057,35.0052141 169.846116,34.707864 169.624441,34.3071961 C169.238992,33.6076856 168.992503,32.6279065 168.679843,31.8668696 C167.601247,29.2394763 166.681463,26.4485653 165.81627,23.7407399 C167.240612,23.0118758 165.854318,21.1511579 165.817924,19.9264341 C165.784838,18.8121593 165.576398,17.7197753 165.500301,16.6096465 C165.459936,16.0198055 165.586324,15.3359337 165.290372,14.7951314 C164.727417,13.7647382 163.381819,14.3962877 162.682882,13.44898 C161.642335,12.0388975 163.068993,11.5774494 163.710526,10.4728265 C163.978025,10.0121744 164.071161,9.29034193 164.542799,8.98564523 C164.964146,8.71350281 165.662421,8.76526128 166.147127,8.64935613 C165.910564,8.1485212 165.471682,7.79321032 165.247691,7.29448155 C164.961995,6.65852069 165.001202,5.95249269 164.601526,5.34805789 C163.672643,3.943531 161.523061,3.11166408 160.026261,4.0061022 C159.501521,4.31970447 159.060653,4.7613845 158.632689,5.19231813 C158.266429,5.56097908 157.470882,5.95113281 157.243086,6.40233201 C156.941013,7.00071367 157.985862,7.10763032 158.23202,7.42015464 C158.559073,7.83568179 158.253857,8.87043661 158.044258,9.29787104 C157.872212,9.6488535 157.568485,10.0076802 157.28097,10.2706351 C156.90098,10.6181847 155.94844,11.1996839 155.422377,11.1597332 C155.016249,11.1288871 154.597052,10.7285508 154.347089,10.4369886 C153.623008,9.59250128 152.928372,8.37187368 152.581964,7.32264108 L152.085677,7.32264108 C151.726035,7.99074161 151.157291,8.1534798 151.093105,8.9810349 C151.759121,9.21564787 152.9024,10.7067927 152.025958,11.3465513 C151.475907,11.7480982 150.723867,10.9830479 150.26596,10.7453835 C149.593327,10.396275 148.483134,10.5351489 147.853181,10.9731473 C147.042414,11.5367856 146.520817,13.3789295 146.215601,14.2878951 C144.954537,18.0444888 145.480932,22.0589627 145.964811,25.8966518 C146.499477,25.8016259 146.921651,25.7805643 147.45367,25.8966518 C147.031827,26.1865391 146.384173,26.511916 146.273667,27.0641611 C146.117171,27.8450987 147.001223,29.0464392 147.350774,29.7078067 C147.503299,29.996533 147.658637,30.3116279 147.985359,30.4328565 C148.771807,30.7247338 149.920049,29.8761337 150.596818,29.5451182 C150.596818,32.1066733 149.811527,34.3644107 149.234512,36.842051 C149.034508,37.7007674 148.366341,38.8971327 149.438816,39.3296418 L149.935103,38.0029267 C149.953134,38.6402475 149.450065,39.5022806 149.710616,40.1059359 C150.055204,40.9046184 150.7596,40.0871961 150.924533,39.6581696 C151.431076,38.3394148 151.800974,36.8979389 152.085677,35.515336 C153.115803,36.0846626 152.77899,37.5140322 152.649955,38.5004449 C152.52853,39.4281504 152.691478,40.374264 152.5282,41.3197144 C152.33167,42.4588651 151.745721,43.4721437 151.589391,44.636502 C150.696737,44.4811105 149.724512,44.8685113 148.94253,45.2998595 C148.720855,44.7210801 148.245247,44.3512583 147.949957,43.8073051 C147.203542,43.9235585 145.712201,44.7917277 145.145277,43.9011702 C144.813096,43.3794395 145.609304,42.3963436 144.918805,42.0897066 C144.584142,41.9409487 144.154358,42.09236 143.814236,42.1424435 C142.676086,42.3096096 142.09328,42.3038052 142.325377,43.6414657 C141.637524,43.7699912 140.987885,43.8635246 140.340231,44.1389838 C139.87703,41.8628383 137.686422,43.5003364 136.369939,43.8825962 C135.793916,44.0499281 135.143946,44.0285348 134.550222,44.1389838 C134.459733,43.828035 134.366596,43.5991767 134.219365,43.3097869 C132.706353,43.8607054 131.314765,44.1960326 129.752786,44.5685078 C129.274697,44.6826053 128.442259,45.0161083 128.131915,44.4180915 C127.707921,43.6011667 129.078002,42.252395 129.601584,41.784728 C130.910954,40.6155603 132.136285,39.3788961 133.293129,38.0651165 C133.867828,37.4125385 134.594888,36.7705743 134.691168,35.8470148 C134.823511,34.5771826 133.910509,33.651633 133.532173,32.5302271 C132.98113,30.8962117 132.786916,29.0696567 132.378142,27.3892063 C132.191869,26.6235259 131.734458,25.8742635 131.716923,25.0682841 C131.678378,23.3034214 134.815074,23.9218365 134.985631,22.2193294 C135.029139,21.7843327 134.822518,21.3433658 134.743608,20.9214704 C134.47032,19.4612546 133.899425,18.1036935 133.240026,16.7754858 C132.966903,16.2252474 132.748371,15.5152558 132.362591,15.0363448 C132.101379,14.7119464 131.648104,14.6776508 131.389208,14.3603172 C131.01567,13.9025839 130.402094,12.7022882 130.241794,12.1345371 C130.06677,11.5147787 130.700859,11.2629185 131.0696,10.9045727 C131.817503,10.1776158 132.733317,9.40593198 132.565076,8.31767737 C133.069634,8.29222102 133.433578,8.2064489 133.888507,7.98599861 L133.888507,7.65431984 C132.720579,6.85190599 132.906687,5.29490637 131.730819,4.46497977 C130.704664,3.74079236 128.513063,3.56810381 127.437445,4.27111353 C126.789129,4.69486632 126.451489,5.35875454 126.030803,5.97801537 C125.797714,6.32102096 125.05924,6.70427578 125.060563,7.14157764 C125.061887,7.640323 125.768764,7.70231376 126.103757,7.84216611 C126.683255,8.08407602 126.90708,8.68303811 126.67763,9.27803665 C126.212113,10.4860936 124.195205,11.514132 123.135633,12.1319832 C122.749523,10.2553281 122.564573,8.39903817 122.804776,6.49344417 C122.149016,5.85217645 122.150339,4.88798628 122.14306,4.00585344 C121.612199,4.00772743 120.831872,3.91547098 120.591834,4.52730221 C120.356595,5.12692766 120.961072,6.03654009 121.054539,6.65941622 C121.273897,8.12223566 121.150488,9.66014717 121.150488,11.1369469 C120.708462,10.9856682 120.250058,10.8434112 119.889093,10.5318155 C118.896024,9.67437619 117.810645,7.83432191 116.197218,8.27494056 C115.530705,8.45694928 115.462548,9.07128469 115.274787,9.64439242 C114.887518,10.825401 114.520597,11.9036223 114.291809,13.1270194 C113.994533,14.7173694 113.571531,16.2547004 113.006592,17.7705221 C112.74174,18.480978 112.225933,19.1776693 112.099711,19.9264341 C111.969519,20.7000748 112.234536,21.6529879 112.382925,22.4140248 C112.610555,23.5813682 112.74141,24.74838 113.044475,25.8966518 C114.254752,26.088528 114.812744,27.6353119 115.071805,28.7159213 C115.17007,29.1263738 115.169408,29.6378225 115.460232,29.9706621 C115.937494,30.5171029 116.863896,30.3743152 117.511053,30.3743152 C117.515024,31.8390086 117.819082,32.6935789 118.669055,33.8569422 C117.983684,34.4809958 118.96418,34.9342348 119.496199,35.1836572 L119.661628,34.1886209 C120.525828,34.5154904 121.385231,34.6785105 122.308489,34.6861391 C122.10832,35.0533075 121.863651,35.4085354 121.926018,35.8473464 C121.982925,36.2458585 122.27408,36.5712353 122.188057,36.9929649 C122.018493,37.8256444 121.406406,38.605587 121.230059,39.4954812 C120.970997,40.802793 121.067773,42.3056295 120.985059,43.6414657 C120.073215,43.0011599 117.206334,43.0160854 116.51848,43.9731445 C115.605148,43.4844158 114.217035,43.3621922 113.210069,43.6288619 C112.684337,43.768167 112.217496,44.1046551 111.692922,44.2202451 C111.221119,44.3240606 110.746173,44.1038259 110.279498,44.2300297 C109.855173,44.3446247 109.536226,44.7039986 109.080139,44.7323572 C108.445058,44.7716611 107.886074,44.1426323 107.254301,44.0277056 C105.857585,43.7738055 104.534155,43.8049833 103.118746,43.8073051 C102.006899,43.8091293 100.925821,43.9796122 99.8101693,44.0008396 C99.289234,44.01079 98.6377753,44.0741407 98.2905402,43.5928748 C97.8551315,42.9895511 98.2422349,41.964332 98.3998886,41.3197144 C98.596418,40.5155592 98.5428191,39.6624814 98.7697875,38.8793879 C99.0303378,37.9800409 99.6693894,37.2357537 99.8930492,36.3443671 C100.069727,35.6397155 99.5049531,34.8642506 99.8212531,34.2191354 C100.258812,33.3265878 102.184073,32.9189546 102.186389,31.8604019 C102.187382,31.4046752 101.777118,31.0671921 101.560406,30.7059939 C101.207547,30.1179275 101.021108,29.3529104 100.749143,28.7159213 C100.248556,27.5437686 99.9403618,26.2878669 99.4895683,25.0956476 C99.0094938,23.8256496 98.3679608,22.5778741 98.0390883,21.2531492 C97.8240309,20.3866384 98.4137846,19.8987389 98.3846692,19.0972372 C98.3562154,18.3124852 97.8046757,17.5630571 97.6941692,16.7754858 C97.5373427,15.6567831 97.4700132,14.4252101 97.4270017,13.2928588 C97.4031799,12.6637969 97.5173258,12.0767752 97.2718295,11.4711796 C96.6579231,9.9575801 94.6906435,10.902848 94.1753327,9.14687428 C93.8941037,8.18918502 94.839364,7.8993807 95.3257248,7.29884313 C95.8216804,6.68639829 95.8387196,5.59431279 96.5388143,5.17133945 C96.9504013,4.92261354 97.5307256,5.001238 97.9904523,5.00088973 C97.7702665,4.4485285 97.5696013,4.18224021 96.9978793,4.00585344 C96.977697,1.59493689 94.9344856,-0.592701802 92.3658723,0.145735359 C91.4459226,0.410193617 90.8770129,1.23581171 90.1871747,1.84085348 C89.8755068,2.11428945 89.2978293,2.28785695 89.0715227,2.63013285 C88.6579506,3.25559608 89.9767492,3.54448828 90.1353955,4.027993 C90.3066143,4.55000562 90.050365,5.42893776 90.0498688,5.99592602 Z" id="Path"></path>
        </g>
    </g>
</svg>