<svg fill="#000000" xmlns="http://www.w3.org/2000/svg"  viewBox="0 0 50 50" width="50px" height="50px"><path d="M 25 2 C 15.058594 2 7 4.6875 7 8 L 7 25 C 7 30.082031 12.417969 44.082031 25 47 C 37.582031 44.082031 43 30.082031 43 25 L 43 8 C 43 4.6875 34.941406 2 25 2 Z M 25 4 C 35.5 4 41 6.972656 41 8 L 41 25 C 41 29.136719 36.667969 40.523438 27 44.296875 L 27 38 L 23 38 L 23 44.296875 C 13.332031 40.523438 9 29.136719 9 25 L 9 8 C 9 6.972656 14.5 4 25 4 Z M 17 11 C 15.003906 11 12.855469 11.878906 11 15 C 12.953125 13.640625 14.613281 13 16 13 C 18.6875 13 20.027344 16.148438 20.4375 16.5625 C 21.023438 17.148438 21.972656 17.148438 22.5625 16.5625 C 23.148438 15.976563 23.148438 15.027344 22.5625 14.4375 C 22.195313 14.074219 20.4375 11 17 11 Z M 33 11 C 29.5625 11 27.804688 14.074219 27.4375 14.4375 C 26.851563 15.027344 26.851563 15.976563 27.4375 16.5625 C 28.027344 17.148438 28.976563 17.148438 29.5625 16.5625 C 29.972656 16.148438 31.3125 13 34 13 C 35.386719 13 37.046875 13.640625 39 15 C 37.144531 11.878906 34.996094 11 33 11 Z M 16 17 C 14.359375 17 12.917969 17.59375 12 18.5 C 12.917969 19.40625 14.359375 20 16 20 C 17.640625 20 19.082031 19.40625 20 18.5 C 19.082031 17.59375 17.640625 17 16 17 Z M 34 17 C 32.359375 17 30.917969 17.59375 30 18.5 C 30.917969 19.40625 32.359375 20 34 20 C 35.640625 20 37.082031 19.40625 38 18.5 C 37.082031 17.59375 35.640625 17 34 17 Z M 11 26 L 16 34 L 23 34 L 25 32 L 27 34 L 34 34 L 39 26 L 33 31 L 29 31 L 26 28 L 24 28 L 21 31 L 17 31 Z"/></svg>