<?xml version="1.0" encoding="UTF-8" standalone="no"?>
<svg
   xmlns:dc="http://purl.org/dc/elements/1.1/"
   xmlns:cc="http://creativecommons.org/ns#"
   xmlns:rdf="http://www.w3.org/1999/02/22-rdf-syntax-ns#"
   xmlns:svg="http://www.w3.org/2000/svg"
   xmlns="http://www.w3.org/2000/svg"
   xmlns:sodipodi="http://sodipodi.sourceforge.net/DTD/sodipodi-0.dtd"
   xmlns:inkscape="http://www.inkscape.org/namespaces/inkscape"
   inkscape:version="1.0 (4035a4fb49, 2020-05-01)"
   sodipodi:docname="battleground.svg"
   id="svg9"
   version="1.1"
   viewBox="0 0 364 72"
   height="72px"
   width="364px">
  <metadata
     id="metadata15">
    <rdf:RDF>
      <cc:Work
         rdf:about="">
        <dc:format>image/svg+xml</dc:format>
        <dc:type
           rdf:resource="http://purl.org/dc/dcmitype/StillImage" />
        <dc:title>Artboard</dc:title>
      </cc:Work>
    </rdf:RDF>
  </metadata>
  <defs
     id="defs13" />
  <sodipodi:namedview
     inkscape:current-layer="svg9"
     inkscape:window-maximized="1"
     inkscape:window-y="-8"
     inkscape:window-x="-8"
     inkscape:cy="-52.873949"
     inkscape:cx="261.22458"
     inkscape:zoom="2.0727553"
     showgrid="false"
     id="namedview11"
     inkscape:window-height="1017"
     inkscape:window-width="1920"
     inkscape:pageshadow="2"
     inkscape:pageopacity="0"
     guidetolerance="10"
     gridtolerance="10"
     objecttolerance="10"
     borderopacity="1"
     bordercolor="#666666"
     pagecolor="#ffffff" />
  <!-- Generator: Sketch 64 (93537) - https://sketch.com -->
  <title
     id="title2">Artboard</title>
  <desc
     id="desc4">Created with Sketch.</desc>
  <path
     id="Path-0"
     d="m 83.934044,39.095573 c -0.22715,0.624529 -0.19692,1.472466 -0.86899,1.820069 -0.86124,0.445455 -2.27169,-0.312189 -3.10776,-0.588737 -1.47564,-0.488202 -3.004,-0.844762 -4.46657,-1.355565 -0.98082,-0.342426 -2.11204,-0.952404 -3.14317,-1.062841 -1.09761,-0.117544 -3.12211,0.685379 -4.04258,-0.169323 -1.82362,1.758538 -6.326776,-0.181796 -7.848754,1.25828 -0.06236,1.138167 0.661077,2.201877 0.489373,3.319295 -0.153449,0.998853 -1.04965,2.604661 -1.99971,3.005178 -0.889021,0.374551 -2.291377,0.817247 -2.313525,-0.517607 l -1.158009,0.331843 v 0.829228 c -0.720794,0.0076 -1.295811,0.342047 -1.985159,0.400479 -1.100107,0.09335 -2.396901,-0.356788 -3.473991,-0.566325 0.163276,-0.245291 0.165543,-0.199559 0.165543,-0.497537 -0.64747,0.0018 -1.347099,0.157607 -1.985159,0.06539 -1.782992,-0.258901 -3.277455,-1.060199 -5.128289,-1.060199 0.396699,-0.117543 0.749896,-0.132283 1.15816,-0.183307 0.52441,-0.06576 1.609474,-0.802658 0.636246,-1.171162 -0.885695,-0.335244 -2.304265,0.07899 -3.283087,-0.06841 -0.679105,-0.102425 -1.792743,-0.983773 -2.412283,-0.777297 -0.558841,0.18633 -0.659414,1.216781 -0.731036,1.702677 -1.184126,-0.864529 -2.228486,-0.608466 -2.316019,0.995036 -0.902741,0.0076 -1.351522,0.313701 -2.150552,0.666028 -0.811767,0.357921 -1.40451,0.07332 -1.488869,1.158199 -0.28422,0.03402 -0.706053,0.188598 -0.983962,0.08655 -0.614891,-0.226394 -0.727219,-0.951723 -1.49828,-1.020548 -1.358665,-0.121323 -3.733078,2.132182 -4.796637,0.43646 -0.939439,0.146267 -1.903748,0.501505 -2.812271,0.791395 -1.149581,0.366614 -1.362746,1.077052 -2.726475,-0.57241 -0.152315,-0.184063 -1.832164,-0.245291 -1.410142,-0.805492 -0.601361,-0.645997 -2.865298,-0.456945 -5.994709,0.02646 -0.197669,-0.202961 -0.507893,0.322771 -0.620901,0.06047 -1.060081,0 -3.389782,-0.359055 -4.13571,0.497499 -1.134539,-0.504301 -2.24451,-0.647281 -3.473991,-0.357542 -0.50022,0.117921 -0.975647,0.400667 -1.488869,0.449763 -0.890381,0.08504 -1.880164,-0.307275 -2.381631,0.799181 -0.27893,0.61527 -0.09978,1.59704 -0.09978,2.259553 v 4.975181 17.744807 H 363.9999 V 47.02075 c -0.68651,0.488882 -1.06533,-0.06879 -1.74195,0.382564 -0.43506,0.291024 -0.96113,0.241134 -1.40118,0.550262 -0.0911,-0.234331 -0.15383,-0.459213 -0.31257,-0.66104 -1.07198,-1.360365 -2.45166,-0.138708 -3.67253,0.238866 -0.61372,0.189733 -1.33167,0.137575 -1.97026,0.256252 -0.16857,-0.297826 -0.27478,-0.525052 -0.67163,-0.506116 -0.44005,0.02268 -0.89499,0.304252 -1.31349,0.433814 -0.93468,0.28989 -1.84453,0.490734 -2.81231,0.616592 -0.52936,0.06879 -1.68405,0.317102 -1.67415,-0.554079 l -7.09349,-0.322015 c -0.85527,-0.807156 -2.54264,-0.320882 -3.63284,-0.171969 -1.17287,0.160252 -2.32592,-0.225638 -3.48061,-0.05934 -0.76097,0.109606 -1.41275,0.574488 -2.15059,0.730544 -0.44829,0.09487 -0.88172,-0.140598 -1.3234,-0.0378 -0.47478,0.110362 -0.81724,0.595011 -1.32344,0.59418 -0.61538,-0.0012 -1.07032,-0.659226 -1.6543,-0.817928 -1.08189,-0.294425 -2.51947,-0.249071 -3.63942,-0.235087 -1.21923,0.01512 -2.43182,0.139087 -3.63946,0.19767 -0.6071,0.03024 -1.40779,0.237354 -1.88254,-0.294047 -0.42682,-0.477279 -9.12163,0.03855 -9.02676,-0.507553 -2.50431,-0.752618 -4.92567,-6.159685 -5.79882,-2.052397 -0.86022,-0.100157 -1.8528,0.159874 -2.64687,0.497537 -0.20863,-0.554268 -0.68323,-1.175471 -1.33006,-1.240176 -1.03721,-0.103559 -2.38545,0.851112 -2.64022,-0.749896 -0.46984,-3.4e-4 -1.04055,0.07257 -1.4657,-0.170457 -0.50457,-0.28989 -0.6005,-0.800013 -1.18118,-0.990576 l -0.16555,0.82919 c -0.42017,-1.385908 -0.27628,-2.572982 -0.16554,-3.980138 l -0.99258,0.165922 c 0.13228,1.043792 0.30954,2.098053 0.33071,3.150954 h -0.49629 V 41.6511 h -0.66168 c -0.21014,-1.294866 -1.59145,-1.91777 -2.02984,-3.150916 -5.75629,2.255546 -3.28463,-1.371289 -10.04379,1.381077 -4.71696,1.920794 -1.2054,2.012183 -6.93898,0.0926 -3.15481,-0.478829 -2.75418,-2.832756 -2.78744,-2.137247 -0.0265,0.555552 -0.28611,1.104982 -0.36737,1.658418 -0.44667,0 -1.17952,-0.12737 -1.55505,0.170457 -0.72125,0.573128 -1.95787,1.850192 -1.70162,2.554507 -4.50713,1.39253 -9.37606,-1.970645 -14.22686,-3.963212 -1.63521,-0.671698 -1.59379,-0.462312 -3.36053,-0.674759 -1.38467,-0.166677 -2.17466,0.08882 -3.57751,0.08882 -0.0397,-0.600832 -1.03498,1.857165 -0.86127,1.290311 -0.80357,2.22274 -1.81999,1.719673 -3.00239,2.941089 -0.0578,1.126563 -2.22265,-0.825872 -2.28056,0.306815 -0.11905,2.265033 -3.7722,3.493961 -5.82849,3.588147 0.0189,-0.984567 0.40032,-1.854085 0.49629,-2.819263 -0.8784,0.64029 -0.55748,1.988258 -1.6543,2.321764 v 0.82919 c -0.70968,-0.145889 -1.13647,0.202961 -1.81969,0.311055 -1.0207,0.161008 -2.94962,-0.01134 -3.47403,-0.974324 -0.70636,0.002 -1.4541,0.194268 -2.15055,0.124347 -1.12657,-0.113008 -2.13736,-0.527358 -3.3086,-0.527358 -0.83539,0 -2.01491,0.424555 -2.80566,0.134551 -0.88838,-0.326929 -1.10506,-2.43651 -2.14397,-2.307817 -1.42103,0.176126 -0.40199,2.629228 -1.22416,3.212296 -2.02155,1.435502 -4.96618,0.211275 -6.89506,1.685594 -0.26797,-0.329953 -0.51946,-0.745777 -0.87016,-0.993714 -1.18447,-0.834671 -2.60221,0.588586 -3.76184,0.790073 -0.84204,0.146267 -1.53188,-0.436007 -2.31602,-0.330709 -0.90161,0.120945 -1.78167,0.613266 -2.66177,0.837808 -1.05045,0.268346 -2.05958,0.202205 -3.12824,0.194268 -1.46275,-1.091793 -2.49226,-1.994646 -3.52558,-1.684196 -1.16584,0.350363 -2.302,1.934816 -3.42085,0.687496 -1.55006,-0.833196 -3.03561,-0.09978 -4.632,0.08731 -0.93963,0.109985 -1.84948,-0.359811 -2.81227,-0.198803 -0.65016,0.108473 -1.18946,0.50812 -1.81973,0.643767 -0.44334,0.09562 -0.86355,-0.164031 -1.29532,-0.06803 -0.445,0.09865 -0.72125,0.542135 -1.18776,0.60136 -0.9016,0.114142 -1.49881,-0.8609 -2.47978,-0.73353 -0.19843,-1.197695 -1.35323,-1.514948 -2.31602,-0.995037 -0.24492,-0.40199 -1.71549,-1.918903 -2.14726,-1.38924 -0.52441,0.643653 0.21354,1.6433 0.49296,2.218431 -1.62947,0.0703 -3.16959,0.129638 -4.79743,0 0.0227,-1.158879 -5.82652,0.310677 -5.64121,-0.816756 0,0 -6.18066,-5.382387 -8.91636,-2.002469 -0.89265,-0.155339 -1.86489,0.232063 -2.64688,0.663383 -0.22186,-0.578797 -0.69728,-0.948624 -0.99254,-1.492574 -0.74642,0.11641 -2.23778,0.984416 -2.80471,0.09373 -0.33222,-0.521726 0.46405,-1.504818 -0.2264,-1.811452 -0.33448,-0.148913 -0.76441,0.0027 -1.10452,0.05253 -1.13817,0.167056 -1.72098,0.161386 -1.48887,1.499037 -0.68788,0.128504 -1.3375,0.221858 -1.98516,0.497499 -0.46318,-2.276145 -2.6538,-0.638665 -3.97028,-0.256252 -0.57604,0.167433 -1.22601,0.14589 -1.81973,0.256252 -0.0903,-0.311055 -0.18369,-0.539792 -0.33071,-0.829191 -1.51302,0.550904 -2.90461,0.886224 -4.46657,1.258696 -0.47807,0.114142 -1.31052,0.44761 -1.62089,-0.150425 -4.43505,2.786986 -2.62012,-2.886425 -7.1466,-0.776957 -0.91184,-0.640328 -3.77873,-0.625399 -4.4666,0.331842 -0.91333,-0.48873 -2.30143,-0.61096 -3.30841,-0.344315 -0.52573,0.139465 -0.99254,0.475767 -1.51714,0.591383 -0.4718,0.103937 -0.94674,-0.116409 -1.41343,0.01134 -0.42433,0.11452 -0.74325,0.473953 -1.19936,0.502299 -0.63507,0.03931 -1.19407,-0.589719 -1.82581,-0.704655 -1.39673,-0.253984 -2.72017,-0.222614 -4.13556,-0.220346 -1.11186,0.0018 -2.19296,0.172346 -3.308596,0.193512 -0.52093,0.01134 -1.17237,0.07332 -1.51963,-0.407963 -3.9111,0.16365 -1.56299,-1.62297 -3.4992,-3.041163 -1.99442,-1.460825 -8.25124,-2.541732 -10.85949,-1.456252 z"
     style="stroke-width:0.999999;fill:#291b1b;fill-opacity:1"
     sodipodi:nodetypes="cssssccsscccsccccssssccsccscssccccsssscccccccsccssccssssssscscccscccccccccccscscccssccccccccscsscscccssscscsssssccsccccccsssccsccscccsscsssccscc" />
</svg>
