<?xml version="1.0" encoding="UTF-8"?>
<svg width="341px" height="85px" viewBox="0 0 341 85" version="1.1" xmlns="http://www.w3.org/2000/svg" xmlns:xlink="http://www.w3.org/1999/xlink">
    <!-- Generator: Sketch 64 (93537) - https://sketch.com -->
    <title>Combined Shape</title>
    <desc>Created with Sketch.</desc>
    <g id="Permission" stroke="none" stroke-width="1" fill="none" fill-rule="evenodd">
        <g id="Artboard" transform="translate(-26.000000, -23.000000)" fill="#FDE2B5" fill-rule="nonzero">
            <path d="M343.168007,48.4298629 L343.168007,53.0656169 L342.903992,53.0780912 C340.747007,53.2010931 339.668514,53.8003188 339.668514,54.8757684 C339.668514,55.3172688 340.14102,56.3915864 341.08603,58.0987212 L341.08603,58.0987212 L348.838073,72.0942832 L354.729625,59.6439725 L354.861512,59.3568721 C355.807193,57.2857429 356.280033,55.9686418 356.280033,55.4055689 C356.280033,53.8456009 355.024941,53.0656169 352.514755,53.0656169 L352.514755,53.0656169 L352.514755,48.4298629 L367,48.4298629 L367,53.0656169 L366.697812,53.1006008 C365.114347,53.3075509 363.982132,53.8404068 363.301168,54.6991683 C362.577645,55.6116024 360.946024,58.6873884 358.406308,63.9265262 L358.406308,63.9265262 L344.231145,93.2421513 L343.994542,93.7316941 C341.328214,99.2238867 339.177446,102.813459 337.54224,104.500411 C335.858939,106.236979 333.732665,107.105263 331.163416,107.105263 C329.243863,107.105263 327.663923,106.531313 326.423596,105.383412 C325.18327,104.235511 324.563106,102.822709 324.563106,101.145008 C324.563106,98.2899723 326.556488,96.376804 330.543253,95.4055031 C334.234702,94.5519357 336.678441,93.5953516 337.87447,92.5357507 C339.070499,91.4761498 340.392038,89.3716646 341.839086,86.2222953 L341.839086,86.2222953 L326.069217,59.2466222 L325.360459,57.922121 L325.201208,57.6265256 C324.099265,55.5953502 323.266401,54.3620225 322.702616,53.9265426 C322.280736,53.6006733 321.640383,53.3611518 320.781556,53.2079782 L320.726388,53.198 L322.363003,53.198067 L322.363003,48.4298629 L343.168007,48.4298629 Z M156.229644,46.2631579 C161.035542,46.2631579 165.154882,48.0251528 168.587666,51.5491425 C172.02045,55.0731323 173.736842,59.6956042 173.736842,65.4165582 C173.736842,71.314449 171.923437,76.12123 168.296626,79.8369012 C164.669815,83.5525724 160.393761,85.410408 155.468462,85.410408 C153.169989,85.410408 150.93868,84.982811 148.774533,84.1276168 C146.610387,83.2724226 144.498479,82.0043761 142.438808,80.3234772 L142.438808,80.3234772 L142.438808,94.7438202 L142.442056,95.1013799 C142.478862,97.0927371 142.828521,98.4922575 143.491031,99.2999409 C144.192513,100.155135 145.782041,100.582732 148.259616,100.582732 L148.259616,100.582732 L149.69243,100.582732 L149.69243,105.315789 L121.842105,105.315789 L121.842105,100.582732 L122.171827,100.580516 C124.552233,100.548017 126.106479,100.15802 126.834567,99.4105263 C127.59575,98.6290558 127.976341,97.0734871 127.976341,94.7438202 L127.976341,94.7438202 L127.976341,60.0642224 L127.973364,59.7161692 C127.937643,57.662772 127.580432,56.2379657 126.90173,55.4417504 C126.185323,54.601301 124.498781,54.1810763 121.842105,54.1810763 L121.842105,54.1810763 L121.842105,49.4922531 L141.274647,46.2631579 L141.430066,46.8345465 C141.923459,48.7403939 142.170156,50.658427 142.170156,52.5886458 C144.289527,50.4654051 146.520836,48.8803469 148.864084,47.8334713 C151.207332,46.7865957 153.662519,46.2631579 156.229644,46.2631579 Z M122.066392,91 L122.066392,95 L26.894388,95 L26.894388,91 L122.066392,91 Z M324,91 L324,95 L149.411691,95 L149.411691,91 L324,91 Z M311.465846,36.4210526 L311.465846,48.4298629 L319.646097,48.4298629 L319.646097,53.0656169 C319.956178,53.0908455 320.246597,53.1238454 320.517354,53.1646166 L320.726388,53.198 L311.465846,53.198067 L311.465846,72.0501331 L311.466923,72.4382472 C311.483432,75.3711843 311.689794,77.3242231 312.08601,78.2973635 C312.499452,79.3128144 313.355868,79.8205398 314.655258,79.8205398 C316.604343,79.8205398 318.169517,78.6137721 319.350781,76.2002367 L319.350781,76.2002367 L323.691924,77.6571879 L323.562155,77.9707491 C321.265524,83.3540464 316.509898,86.0456951 309.295275,86.0456951 C305.249447,86.0456951 302.207693,85.067036 300.170013,83.1097176 C298.132334,81.1523993 297.113494,78.2164218 297.113494,74.3017851 L297.113494,74.3017851 L297.113494,53.198067 L291.842105,53.198067 L291.842105,48.4298629 L292.94954,48.474013 L293.359553,48.468984 C296.757215,48.3851686 299.677063,47.2536606 302.119098,45.07446 C304.658815,42.8080914 306.194458,39.9236223 306.726026,36.4210526 L306.726026,36.4210526 L311.465846,36.4210526 Z M248.888705,46.2631579 C253.312123,46.2631579 256.813996,47.0786996 259.394323,48.7097829 C261.97465,50.3408663 263.264814,52.4909307 263.264814,55.1599762 C263.264814,56.6724353 262.756121,57.9995441 261.738734,59.1413024 C260.721348,60.2830608 259.401695,60.8539399 257.779775,60.8539399 C254.565425,60.8539399 252.515908,58.7483596 251.631224,54.5371989 C251.365819,53.2916444 250.967711,52.4019625 250.436901,51.8681534 C249.906091,51.3343443 248.991918,51.0674398 247.694382,51.0674398 C245.069821,51.0674398 243.1014,52.1128159 241.789119,54.2035682 C240.476838,56.2943205 239.820698,59.430449 239.820698,63.6119536 C239.820698,69.3355734 240.609541,73.4503519 242.187226,75.956289 C243.764912,78.4622262 246.234654,79.7151948 249.596452,79.7151948 C254.196807,79.7151948 257.529115,77.4613341 259.593377,72.9536128 L259.593377,72.9536128 L264.105263,74.955397 L263.95787,75.3454553 C262.692245,78.5671521 260.492805,81.069108 257.359551,82.8513232 C254.100966,84.704827 250.304199,85.6315789 245.969249,85.6315789 C240.041869,85.6315789 235.021289,83.9634255 230.90751,80.6271186 C226.793732,77.2908118 224.736842,72.6867083 224.736842,66.8148082 C224.736842,60.6463475 226.978041,55.6789573 231.460438,51.9126375 C235.942835,48.1463178 241.752257,46.2631579 248.888705,46.2631579 Z M287.467836,46.2787185 L287.467836,73.304958 L287.470849,73.6518648 C287.507006,75.6984985 287.868575,77.1186117 288.555556,77.9122044 C289.280702,78.7498856 290.97271,79.1687262 293.631579,79.1687262 L293.631579,79.1687262 L293.631579,83.8421053 L265.894737,83.8421053 L265.894737,79.1687262 L266.937135,79.1687262 L267.266766,79.1662259 C269.644795,79.1295549 271.158944,78.6895035 271.809211,77.8460717 C272.489035,76.9643021 272.828947,75.4505975 272.828947,73.304958 L272.828947,73.304958 L272.828947,60.1665904 L272.82573,59.8101405 C272.789268,57.8245712 272.442874,56.4223352 271.78655,55.6034325 C271.091618,54.736359 269.475146,54.3028223 266.937135,54.3028223 L266.937135,54.3028223 L265.894737,54.3028223 L265.894737,49.6294432 L287.467836,46.2787185 Z M192.926274,23 L192.926274,73.304958 L192.929242,73.6563225 C192.964852,75.7286033 193.32095,77.1545787 193.997538,77.9342487 C194.652198,78.6886516 196.144507,79.0972865 198.474463,79.1601534 L198.781388,79.166 L198.7709,79.1662259 L198.7709,79.1662259 L198.446256,79.1687262 L197.419629,79.1687262 L197.419629,83.8421053 L171.947368,83.8421053 L171.947368,79.1687262 L172.337658,79.1661407 C174.512605,79.1368391 176.063797,78.8584739 176.991233,78.331045 C177.973224,77.7725909 178.46422,76.0972286 178.46422,73.304958 L178.46422,73.304958 L178.46422,36.7556064 L178.461374,36.413094 C178.425331,34.2804974 178.046874,32.8442232 177.326003,32.1042715 C176.567191,31.325375 174.774313,30.9359268 171.947368,30.9359268 L171.947368,30.9359268 L171.947368,26.2184592 L192.926274,23 Z M218.66635,46.2787185 L218.66635,73.304958 L218.669318,73.6518648 C218.704928,75.6984985 219.061026,77.1186117 219.737613,77.9122044 C220.451789,78.7498856 222.118199,79.1687262 224.736842,79.1687262 L224.736842,79.1687262 L224.736842,83.8421053 L199.130674,83.8421053 L199.130674,79.1687262 L198.797377,79.166583 L198.797377,79.166583 L198.781388,79.166 L199.084997,79.158725 C201.143821,79.0920505 202.499494,78.6920038 203.152018,77.9585848 L203.244623,77.8460717 C203.914162,76.9643021 204.248932,75.4505975 204.248932,73.304958 L204.248932,73.304958 L204.248932,60.1665904 L204.245763,59.8101405 C204.209853,57.8245712 203.8687,56.4223352 203.222305,55.6034325 C202.537886,54.736359 200.94587,54.3028223 198.446256,54.3028223 L198.446256,54.3028223 L197.419629,54.3028223 L197.419629,49.6294432 L218.66635,46.2787185 Z M51.5937611,23 C58.5821523,23 64.2639532,23.39911 68.6391639,24.1973301 C73.0143746,24.9955501 77.1506659,26.7471996 81.0480379,29.4522787 C84.9454099,32.1573577 87.9468343,35.6606567 90.0523111,39.9621758 C92.1577879,44.263695 93.2105263,49.0012787 93.2105263,54.1749271 C93.2105263,59.4668303 92.0980581,64.1970232 89.8731216,68.3655056 C87.6481851,72.533988 84.6542269,75.8599049 80.8912471,78.3432561 C77.1282672,80.8266073 73.2308952,82.36392 69.1991311,82.9551941 C65.2707456,83.5313073 58.7338822,83.82675 49.5885409,83.8421053 L49.5885409,83.8421053 L27,83.8421053 L27,78.9197484 L27.3783049,78.9173714 C30.3634589,78.8793407 32.3577665,78.3849409 33.3612278,77.4341722 C34.4065,76.443788 34.9291361,74.4851926 34.9291361,71.5583858 L34.9291361,71.5583858 L34.9291361,35.9489029 L34.9263416,35.5838274 C34.8853549,32.9441071 34.3935153,31.1293762 33.4508226,30.1396348 C32.4652803,29.1049051 30.3150061,28.5875403 27,28.5875403 L27,28.5875403 L27,23.7095289 L34.3019728,23.4434556 L35.0313737,23.4143846 C42.0312462,23.1381282 47.552042,23 51.5937611,23 Z M116.573099,46.2787185 L116.573099,73.304958 L116.576112,73.6518648 C116.612269,75.6984985 116.973838,77.1186117 117.660819,77.9122044 C118.385965,78.7498856 120.077973,79.1687262 122.736842,79.1687262 L122.736842,79.1687262 L122.736842,83.8421053 L95,83.8421053 L95,79.1687262 L96.0423977,79.1687262 L96.372029,79.1662259 C98.7500585,79.1295549 100.264207,78.6895035 100.914474,77.8460717 C101.594298,76.9643021 101.934211,75.4505975 101.934211,73.304958 L101.934211,73.304958 L101.934211,60.1665904 L101.930993,59.8101405 C101.894531,57.8245712 101.548137,56.4223352 100.891813,55.6034325 C100.196881,54.736359 98.5804094,54.3028223 96.0423977,54.3028223 L96.0423977,54.3028223 L95,54.3028223 L95,49.6294432 L116.573099,46.2787185 Z M150.946142,52.8540509 C149.214825,52.8540509 147.550671,53.4512123 145.953681,54.6455352 C144.35669,55.8398581 143.185066,57.1595111 142.438808,58.6044944 L142.438808,58.6044944 L142.438808,74.9711413 L142.766113,75.3014354 C143.86268,76.3774349 145.014753,77.203627 146.222333,77.7800118 C147.550671,78.4140351 148.931247,78.7310467 150.364062,78.7310467 C153.080438,78.7310467 155.110258,77.6767987 156.453522,75.5683028 C157.796785,73.4598068 158.468417,70.2970629 158.468417,66.080071 C158.468417,61.6566529 157.84156,58.3464617 156.587848,56.1494973 C155.334136,53.952533 153.453567,52.8540509 150.946142,52.8540509 Z M50.8322057,28.410158 L50.8322057,69.828909 L50.8330691,70.2030809 C50.8445817,72.6580081 50.9712198,74.3218883 51.2129834,75.1947215 C51.4668352,76.1111964 52.1387959,76.8946345 53.2288655,77.5450361 C54.318935,78.1954376 55.9988367,78.5206383 58.2685706,78.5206383 C63.8831755,78.5206383 68.0866629,76.4807427 70.8790328,72.4009514 C73.6714028,68.32116 75.0675878,62.2162549 75.0675878,54.086236 C75.0675878,47.5230934 74.0372481,42.2977086 71.9765686,38.4100813 C69.9158892,34.5224541 67.2429789,31.8838934 63.9578378,30.4943993 C60.6726966,29.1049051 56.2974859,28.410158 50.8322057,28.410158 L50.8322057,28.410158 Z M280.352339,23 C282.618421,23 284.537037,23.7788965 286.108187,25.3366895 C287.679337,26.8944826 288.464912,28.7755912 288.464912,30.9800153 C288.464912,33.1844394 287.671784,35.0655479 286.085526,36.623341 C284.499269,38.181134 282.588207,38.9600305 280.352339,38.9600305 C278.025828,38.9600305 276.084552,38.1590898 274.528509,36.5572082 C272.972466,34.9553267 272.194444,33.0962624 272.194444,30.9800153 C272.194444,28.8049835 272.995127,26.931223 274.596491,25.3587338 C276.197856,23.7862446 278.116472,23 280.352339,23 Z M211.658503,23 C213.890301,23 215.779891,23.7788965 217.327271,25.3366895 C218.874651,26.8944826 219.648342,28.7755912 219.648342,30.9800153 C219.648342,33.1844394 218.867212,35.0655479 217.304953,36.623341 C215.742694,38.181134 213.860544,38.9600305 211.658503,38.9600305 C209.36719,38.9600305 207.455282,38.1590898 205.922781,36.5572082 C204.390279,34.9553267 203.624028,33.0962624 203.624028,30.9800153 C203.624028,28.8049835 204.412597,26.931223 205.989735,25.3587338 C207.566872,23.7862446 209.456462,23 211.658503,23 Z M109.457602,23 C111.723684,23 113.6423,23.7788965 115.21345,25.3366895 C116.7846,26.8944826 117.570175,28.7755912 117.570175,30.9800153 C117.570175,33.1844394 116.777047,35.0655479 115.190789,36.623341 C113.604532,38.181134 111.69347,38.9600305 109.457602,38.9600305 C107.131092,38.9600305 105.189815,38.1590898 103.633772,36.5572082 C102.077729,34.9553267 101.299708,33.0962624 101.299708,30.9800153 C101.299708,28.8049835 102.10039,26.931223 103.701754,25.3587338 C105.303119,23.7862446 107.221735,23 109.457602,23 Z" id="Combined-Shape"></path>
        </g>
    </g>
</svg>