<?xml version="1.0" encoding="UTF-8"?>
<svg width="24px" height="24px" viewBox="0 0 24 24" version="1.1" xmlns="http://www.w3.org/2000/svg" xmlns:xlink="http://www.w3.org/1999/xlink">
    <!-- Generator: Sketch 64 (93537) - https://sketch.com -->
    <title>Artboard</title>
    <desc>Created with Sketch.</desc>
    <g id="Artboard" stroke="none" stroke-width="1" fill="none" fill-rule="evenodd">
        <path d="M2.98188996,2.24133335 L21.3666663,20.6261097 L20.0261097,21.9666663 L19.0573333,20.998 L19,21 L5,21 C3.95,21 3.0822314,20.1799587 3.00551277,19.1486946 L3,19 L3,5 L3.00233335,4.942 L1.64133335,3.58188996 L2.98188996,2.24133335 Z M12,1 C13.235,1 14.2895,1.7581 14.75196,2.828465 L14.82,3 L19,3 C20.05,3 20.9177686,3.82004132 20.9944872,4.85130541 L21,5 L21,17.963 L16.037,13 L17,13 L17,11 L14.037,11 L12.037,9 L17,9 L17,7 L10.037,7 L6.037,3 L9.18,3 C9.579,1.898 10.5917,1.0848 11.80656,1.006235 L12,1 Z M13.0593333,15 L7,15 L7,17 L15.0593333,17 L13.0593333,15 Z M11.0593333,13 L9.06033335,11 L7,11 L7,13 L11.0593333,13 Z M12,3 C11.45,3 11,3.45 11,4 C11,4.55 11.45,5 12,5 C12.55,5 13,4.55 13,4 C13,3.45 12.55,3 12,3 Z" id="Shape" fill="#000000" fill-rule="nonzero"></path>
    </g>
</svg>