<?xml version="1.0" encoding="UTF-8" standalone="no"?>
<svg
   xmlns:dc="http://purl.org/dc/elements/1.1/"
   xmlns:cc="http://creativecommons.org/ns#"
   xmlns:rdf="http://www.w3.org/1999/02/22-rdf-syntax-ns#"
   xmlns:svg="http://www.w3.org/2000/svg"
   xmlns="http://www.w3.org/2000/svg"
   version="1.1"
   id="svg2"
   width="271"
   height="270"
   viewBox="0 0 271 270">
  <metadata
     id="metadata8">
    <rdf:RDF>
      <cc:Work
         rdf:about="">
        <dc:format>image/svg+xml</dc:format>
        <dc:type
           rdf:resource="http://purl.org/dc/dcmitype/StillImage" />
        <dc:title></dc:title>
      </cc:Work>
    </rdf:RDF>
  </metadata>
  <defs
     id="defs6" />
  <g
     id="g10">
    <g
       id="g54"
       transform="translate(0.06732353,-1.8486695)">
      <path
         style="fill:#e59fa3"
         d="M 115.5,267.34543 C 17.685445,252.11314 -30.806191,138.79864 26.149635,58.552895 89.716123,-31.00669 228.33838,-9.4261274 261.86895,95.249421 291.47281,187.66659 211.05009,282.22509 115.5,267.34543 Z m 40.67607,-36.30735 c 8.3634,-1.8495 23.3043,-7.38828 24.30718,-9.01098 1.09573,-1.77293 -19.59312,-28.53884 -21.83312,-28.24629 -11.94684,1.56029 -13.43634,1.46383 -19.31169,-1.25053 -5.1747,-2.39066 -25.18921,-6.47555 -31.93254,-6.51731 -1.42199,-0.009 -5.3624,3.67795 -12.277343,11.48703 -8.510695,9.61117 -14.37752,14.41058 -12.96189,10.60358 4.833089,-12.99743 22.927033,-26.07907 33.832243,-24.46019 11.48229,1.70456 11.99293,1.57563 9.25155,-2.33581 -1.08224,-1.54417 -3.45172,-6.63258 -5.26551,-11.30758 -4.59934,-11.85469 -3.38201,-11.21297 -18.00125,-9.48928 -6.866037,0.80955 -13.037054,1.47581 -13.713376,1.48059 -0.676322,0.005 -2.102728,1.72001 -3.169791,3.81163 C 82.997495,169.92523 79.6001,172 74.952947,172 72.36558,172 70.338769,169.16947 72.75,168.92349 81.929027,167.98709 82.062637,167.76467 85.904013,147.026 89.57434,127.21078 90.811391,129 73.440983,129 61.27122,129 59,128.76409 59,127.5 c 0,-1.27479 2.589885,-1.50221 17.25,-1.51474 14.72108,-0.0126 16.88349,-0.20397 14.75,-1.30549 -1.437559,-0.74221 -2.377499,-2.00054 -2.211747,-2.96094 1.750812,-10.14457 -17.144024,-18.37335 -29.404341,-12.80571 -11.678471,5.30341 -15.896471,35.93444 -5.854364,42.51428 6.308518,4.1335 6.507952,14.52184 0.279469,14.55729 -3.581817,0.0204 -4.417753,-1.59667 -1.587025,-3.06997 1.252904,-0.6521 2.396415,-1.28058 2.541135,-1.39663 0.751841,-0.60292 -2.929866,-7.33795 -5.146788,-9.41514 -2.712646,-2.54167 -4.569413,-6.974 -4.65119,-11.10295 -0.286786,-14.47985 0.14731,-19.46581 2.073978,-23.82136 8.480941,-19.172572 35.298997,-18.829542 45.336007,0.5799 0.849624,1.64299 2.462792,3.22732 3.584818,3.52074 3.103945,0.8117 2.831738,6.40288 -0.383035,7.86763 -2.710494,1.23498 -2.636007,1.01153 -5.570626,16.71136 -2.560246,13.69698 -3.484818,12.68816 10.213969,11.14462 15.2332,-1.71643 14.94029,-0.66658 3.98085,-14.26819 -9.221563,-11.44475 -4.990276,-19.00007 7.16903,-12.80091 5.25253,2.6779 5.56721,3.18582 -18.903941,-30.513003 C 64.495301,60.902519 67.336694,63.680025 62.035514,69.674325 -0.85482703,140.78748 63.725443,251.48276 156.17607,231.03808 Z m -84.707632,-69.7125 c -2.685142,-2.68514 -1.680528,-14.92567 1.431834,-17.44591 5.624429,-4.55438 9.598723,-0.4119 8.611135,8.97556 -0.981458,9.32919 -5.43118,13.08214 -10.042969,8.47035 z m 6.974319,-3.68588 C 80.201666,148.79458 79.644626,145 76.587261,145 c -3.519614,0 -6.019838,11.42457 -3.132178,14.31223 1.987276,1.98727 4.422271,1.17074 4.987674,-1.67253 z M 218.34848,186.74538 C 258.63671,122.21434 211.66993,37.702099 135.5,37.66745 117.95212,37.659468 93,43.504909 93,47.623769 c 0,1.388718 41.20332,58.765821 42.99637,59.873991 1.31235,0.81107 1.73145,-1.81075 3.03686,-18.99776 1.22317,-16.104267 2.33198,-19.5 6.36738,-19.5 4.77428,0 5.07459,1.551133 5.45056,28.153008 0.39609,28.024612 2.54997,34.072382 4.59163,12.892602 0.79843,-8.28265 6.03127,-39.378756 7.61872,-45.274079 1.31121,-4.869457 5.03577,-7.503862 8.4255,-5.9594 4.18001,1.90454 4.19156,3.267364 0.39641,46.767239 -0.6756,7.74366 -0.93987,14.83116 -0.58728,15.75 1.58338,4.12623 3.83564,0.10712 5.22806,-9.32937 4.62386,-31.336051 14.24332,-49.632294 19.46582,-37.024059 1.44962,3.499687 1.18334,5.317699 -4.59177,31.349869 -6.91851,31.1862 -5.53409,32.77207 8.44524,9.67419 7.70338,-12.7282 10.85287,-15.76805 14.38068,-13.88002 3.04089,1.62743 2.06007,4.43785 -7.58505,21.73398 -14.46711,25.94316 -22.07267,50.87176 -17.50647,57.38061 17.64023,25.14511 17.02958,25.02993 29.21582,5.51081 z M 128,148.55902 c 0,-0.24254 -0.51953,-0.76207 -1.15451,-1.15451 -0.7153,-0.44208 -0.88306,-0.27432 -0.44098,0.44098 0.71244,1.15275 1.59549,1.54767 1.59549,0.71353 z"
         id="path62" />
      <path
         style="fill:#a5a5a5"
         d="M 120.1737,265.95981 C 12.541722,252.42846 -34.509119,124.31167 39.214943,45.513655 113.1162,-33.473751 246.66687,7.0592766 264.53157,113.89793 278.78021,199.111 205.17354,276.64587 120.1737,265.95981 Z M 159.5,232.17216 c 25.25073,-7.07415 25.76447,-7.83335 15.20442,-22.46921 -13.97734,-19.3721 -11.59542,-17.28842 -18.00521,-15.75074 -6.60605,1.58477 -12.07613,1.01192 -18.07708,-1.89309 -4.32515,-2.09377 -24.05849,-6.0394 -30.27036,-6.05249 -2.76003,-0.006 -4.40641,1.41141 -13.35177,11.49337 -9.80536,11.05123 -12.037928,12.96338 -11.967603,10.25 0.249881,-9.64125 22.135313,-25.45605 33.019163,-23.86023 11.86626,1.73985 11.68701,1.85051 8.04999,-4.96927 -1.58994,-2.98127 -3.89586,-8.22575 -5.12428,-11.65438 -1.22842,-3.42863 -2.83072,-6.72953 -3.56065,-7.33532 -2.09025,-1.73476 -27.601033,1.56785 -28.91662,3.74352 -3.153937,5.21587 -6.191111,7.56523 -9.946431,7.6939 -5.215899,0.17872 -5.68467,-1.93173 -0.60934,-2.74331 5.693518,-0.91043 6.645595,-2.9556 10.048568,-21.58548 C 89.606087,127.25816 90.826103,129 73.35765,129 c -22.017589,0 -19.515828,-2.32796 3.223981,-3 10.500612,-0.31033 16.064862,-0.81007 14.668369,-1.31739 -1.59043,-0.57777 -2.25,-1.62429 -2.25,-3.57 0,-17.95684 -36.695539,-18.73266 -39.408558,-0.83317 -2.399268,15.82946 -1.256206,26.35658 3.349985,30.85194 C 59.524432,157.55599 60.089583,166 53.936572,166 c -3.83499,0 -4.656471,-1.7758 -1.395091,-3.01577 1.827339,-0.69475 2.473209,-1.50356 2.060174,-2.57992 C 54.270745,159.54198 54,158.4506 54,157.97903 c 0,-0.47156 -1.780521,-2.91462 -3.956714,-5.42902 -4.683586,-5.41146 -5.140355,-7.53757 -4.765055,-22.17979 0.728117,-28.40721 29.158422,-38.101503 44.99395,-15.34223 2.094035,3.0096 4.689445,5.87828 5.767578,6.37482 2.95392,1.36047 2.652328,6.38356 -0.45419,7.56466 -2.826148,1.0745 -2.808354,1.02296 -5.639116,16.33153 -2.633289,14.24064 -3.473222,13.30714 10.565527,11.74241 14.22459,-1.58544 13.96192,-1.00524 5.50484,-12.15976 -7.799684,-10.28746 -8.785494,-13.75476 -4.46977,-15.72113 6.81337,-3.10438 15.20393,2.51667 22.61707,15.15175 3.71989,6.34024 6.13521,8.72173 7.48085,7.37609 C 132.17165,151.16168 72.757441,68.621377 68.984622,64.638402 63.697363,59.056629 43.119028,89.837034 37.98943,111 20.295401,183.99951 88.53842,252.05247 159.5,232.17216 Z M 71.599012,160.75 c -2.344268,-3.64496 -1.003957,-15.43856 1.976488,-17.39143 4.956103,-3.24736 8.432217,1.30752 7.684222,10.06892 -0.763442,8.94233 -6.044472,12.94518 -9.66071,7.32251 z m 6.326469,-1.16021 c 1.991293,-2.39936 1.876349,-12.62061 -0.156717,-13.93588 -2.660148,-1.72096 -4.961898,1.30068 -5.535115,7.26626 -0.65724,6.84003 2.489857,10.52776 5.691832,6.66962 z M 213.52343,196.75 C 275.22874,118.77245 195.15984,8.6196642 100.66144,41.482963 86.943695,46.253524 83.386572,38.732444 129.38176,102.2084 c 3.86913,5.33961 7.18184,9.56134 7.36157,9.3816 0.17973,-0.17973 0.97616,-7.92351 1.76983,-17.208393 2.09324,-24.488167 2.83408,-26.675725 8.43223,-24.898939 3.05375,0.969223 3.31786,2.923604 3.81996,28.267332 0.57755,29.1516 2.64113,32.80091 5.23061,9.25 2.817,-25.620132 7.52836,-46.139873 11.02323,-48.01027 6.94666,-3.717741 8.55317,2.489952 6.51832,25.18731 -2.67648,29.85426 -2.98554,37.42803 -1.56319,38.30709 1.70575,1.05421 2.77466,-0.93865 4.01424,-7.48413 6.80655,-35.941172 11.73904,-47.281859 18.26509,-41.9948 3.1454,2.54823 2.76138,7.116973 -2.72126,32.37548 -6.68103,30.77944 -5.52262,33.84835 5.6667,15.01253 C 205.02894,107.21266 209.36822,102 212.51054,102 c 5.54354,0 4.47496,3.31347 -8.59018,26.63645 -8.44248,15.07093 -9.39468,17.35057 -12.45487,29.81796 -1.35616,5.52507 -3.193,12.57056 -4.08187,15.65663 -1.61613,5.61104 -1.61613,5.61104 7.55477,18.25 10.86383,14.97211 10.31325,14.84209 18.58504,4.38896 z"
         id="path60" />
      <path
         style="fill:#df0c18"
         d="M 120.1737,265.95981 C 12.541722,252.42846 -34.509119,124.31167 39.214943,45.513655 113.1162,-33.473751 246.66687,7.0592766 264.53157,113.89793 278.78021,199.111 205.17354,276.64587 120.1737,265.95981 Z M 159.5,232.17216 c 25.38463,-7.11166 25.79248,-7.7436 14.86016,-23.02509 -13.68883,-19.1346 -12.9213,-18.45863 -18.86016,-16.61037 -13.36742,4.16011 -27.3681,-5.17525 -33.81397,-22.54648 -3.59999,-9.70173 -7.42542,-16.53842 -14.53885,-25.98342 -7.457013,-9.90119 -7.773604,-10.54708 -6.13661,-12.51953 4.31802,-5.2029 14.03384,0.6708 21.12681,12.7722 4.15067,7.08152 8.21786,10.78529 9.94595,9.0572 C 132.93337,152.46663 74.808565,70.77537 68.987131,64.638402 63.695343,59.059787 43.119924,89.833337 37.98943,111 20.295401,183.99951 88.53842,252.05247 159.5,232.17216 Z M 213.52343,196.75 C 264.80731,131.94211 217.80481,35.585732 135,35.774914 c -24.10202,0.05506 -47.519042,7.694154 -43.33805,14.137719 2.024214,3.119634 43.2806,60.185947 44.48876,61.537367 1.91394,2.1409 2.77746,-1.74416 4.21195,-18.95 1.6575,-19.880784 2.01216,-21.5 4.70915,-21.5 3.52286,0 4.03746,3.355781 4.15227,27.077817 0.12173,25.153103 0.68385,28.125453 4.6416,24.543743 1.18994,-1.07689 2.25078,-3.58229 2.5349,-5.98673 4.42978,-37.48865 8.09849,-55.023678 11.75495,-56.184195 5.52921,-1.754902 5.85619,2.525385 2.77691,36.351485 C 168.81616,120.04966 169.06552,125 172.3528,125 c 2.61832,0 3.81786,-2.8949 6.23795,-15.05433 6.2184,-31.243578 9.90665,-40.09746 14.95724,-35.905844 2.30124,1.909866 1.82548,5.945612 -3.69371,31.332344 -5.42846,24.96934 -5.49791,26.77749 -1.05403,27.44058 2.19979,0.32824 3.42876,-1.29665 13.47259,-17.81275 5.01984,-8.25464 8.9995,-12.56775 10.65313,-11.54575 2.05558,1.27041 1.0236,3.94899 -7.30164,18.95193 -4.60663,8.3016 -9.32264,16.97078 -10.48004,19.26484 -2.76244,5.4754 -10.48161,35.96364 -9.51384,37.57661 14.79722,24.66223 19.76201,27.77755 27.89298,17.50237 z"
         id="path58" />
      <path
         style="fill:#262525"
         d="m 144,192.58768 c -13.08807,-4.95303 -17.37927,-9.29875 -22.31397,-22.59746 -3.59999,-9.70173 -7.42542,-16.53842 -14.53885,-25.98342 -7.457013,-9.90119 -7.773604,-10.54708 -6.13661,-12.51953 4.31802,-5.2029 14.03384,0.6708 21.12681,12.7722 8.11131,13.83883 12.62125,12.56712 13.97781,-3.94146 0.44372,-5.3999 1.30927,-15.44301 1.92343,-22.31801 0.61416,-6.875 1.72592,-19.475 2.47057,-28 1.51399,-17.332518 1.91441,-19 4.56262,-19 3.52286,0 4.03746,3.355781 4.15227,27.077817 0.12173,25.153103 0.68385,28.125453 4.6416,24.543743 1.18994,-1.07689 2.25078,-3.58229 2.5349,-5.98673 4.42978,-37.48865 8.09849,-55.023678 11.75495,-56.184195 5.52921,-1.754902 5.85619,2.525385 2.77691,36.351485 C 168.81616,120.04966 169.06552,125 172.3528,125 c 2.61832,0 3.81786,-2.8949 6.23795,-15.05433 6.2184,-31.243578 9.90665,-40.09746 14.95724,-35.905844 2.30124,1.909866 1.82548,5.945612 -3.69371,31.332344 -5.42846,24.96934 -5.49791,26.77749 -1.05403,27.44058 2.19979,0.32824 3.42876,-1.29665 13.47259,-17.81275 5.01984,-8.25464 8.9995,-12.56775 10.65313,-11.54575 2.05558,1.27041 1.0236,3.94899 -7.30164,18.95193 -12.25695,22.08827 -12.22574,22.01396 -16.70316,39.76484 -4.54924,18.03558 -5.75876,20.14614 -13.93792,24.32087 -4.21786,2.15285 -12.73624,5.01846 -14.07895,4.7362 -0.32764,-0.0689 -2.76166,0.52663 -5.40894,1.32334 -5.79292,1.74342 -6.97443,1.74714 -11.49536,0.0362 z"
         id="path56" />
    </g>
  </g>
</svg>
