<svg id="Layer_1" data-name="Layer 1" xmlns="http://www.w3.org/2000/svg" viewBox="0 0 466.23 395.62"><title>UN Black</title><path d="M235,2.19a163.71,163.71,0,0,0-73.73,17.48l1.81,3.46A160.07,160.07,0,0,1,233,6.21V35.93A130.09,130.09,0,0,0,176.9,49.54L178.7,53A126.54,126.54,0,0,1,233,39.89V66.8A99.8,99.8,0,0,0,191.2,76.88h0a100.94,100.94,0,0,0-25.61,17.89l-19-19A127.1,127.1,0,0,1,178.72,53l-1.8-3.45h0A131.55,131.55,0,0,0,143.79,73L122.72,51.9a160.82,160.82,0,0,1,40.36-28.77l-1.81-3.46A165.85,165.85,0,0,0,87.15,94.28h0A165,165,0,0,0,76.83,213.43l3.9-1A161,161,0,0,1,74.22,169h29.71a131.74,131.74,0,0,0,5.63,36.23l3.85-1A127.45,127.45,0,0,1,107.9,169h26.91a101.71,101.71,0,0,0,.93,11.75,20.15,20.15,0,0,0-3.63.84l-.84,2.7c-1.82.34-3,3.38-3,3.38-1.49.5-2.66,2.36-2.16,2.86s-.83.68-.83.68v3.71l-.83,1.18.17,4.05c1,0,.83,1.86.83,1.86-1.66.16-1.33,2.36-1.33,2.36l-3.49,1.18-.67,1-4.32-.17-1.16,1.18h0c-.37-1.1-.72-2.2-1.06-3.31l-3.86,1c.12.39.25.77.38,1.16H105l-.33-.84-1.66-.34-.17-1.86-2.49.17-.5,1-2.66.16c.16,1.69-2.66,4.22-3,3.55s-2.17-2.53-1.33-2.87a20.29,20.29,0,0,1,3-.68v-1.18l-6.15-.17-.67,1-2.49.17v2.7l-1.16.33c-.84.51.16,2.37.16,2.37,1.16,1.18-.16,3-.16,3-1,1,.82,2.87.82,2.87,1.34.34-.82,1.35-.82,1.35a3.07,3.07,0,0,0,1.32,2.19,1.73,1.73,0,0,0,.67,2.53l.17,2.87,1.16.68v1.85l.67,1.18h2.66l-.17-4.22c-2.33-2.7,2-3.37,2.16-2.36s2,1.52,2,1.52c.33,2.53,3.15,4,4,1.52s1.5-1,2,.16,3.65,4.06,3.65,4.06h2.5l.33,2.36c2.83-.17,3.66.17,4.82,4.05a7.33,7.33,0,0,0,4.32,4.89l2.33-.17c0-2,2.33.34,2.33,1.35s4.49,4.89,4.49,4.89l4.48,1,.84.68a132.65,132.65,0,0,0,8.82,10.07l-21,21a160,160,0,0,1-39.18-66.82l-3.89,1a165.58,165.58,0,0,0,87.1,102.32l2-3.5a160.87,160.87,0,0,1-43.19-30.17l21-21a131.05,131.05,0,0,0,36.84,25.2l2-3.47a127.16,127.16,0,0,1-36-24.54l3.91-3.91a4,4,0,0,1,.44,1.43c.33,2.53,1.49,2,1.49,2l9.48-.17,3.33-2.87,8.48-.17c4.32-.17,1.66-6.07.83-6.07a2.37,2.37,0,0,1-.52-2.06,99.28,99.28,0,0,0,21.83,12.78l2-3.47a95.7,95.7,0,0,1-24.83-15.24l-4.48-4.18,20.94-20.94a66.14,66.14,0,0,0,23.13,14.22h0a65.58,65.58,0,0,0,7.05,2.08c-.41.36-.64.7-.55.94.34.84-1.32,1.69-1.32,1.69l-1.5.5-1,1.52-2,.68-.34,3.54-1,.67v1.52l-1.17.34V244l-1.66.17,1,2.53,1.33.68c2.33.33,1.33,3.21,1.33,3.21l1.33.16.67,1.86,1.32,2.7c.5,2,2,1.52,2.66,1.35s1.33,2,1.33,2l6.65.17s-.33.68.83,1a37,37,0,0,0,5.52.42v3a95.84,95.84,0,0,1-35.25-7.42l-2,3.47A99.85,99.85,0,0,0,233,267.19V294.1a126.57,126.57,0,0,1-50.49-11.28l-2,3.48A130.68,130.68,0,0,0,233,298.08v29.71a160.32,160.32,0,0,1-67.11-15.51l-2,3.49a165,165,0,0,0,219.42-76.88l0,0A165,165,0,0,0,296.57,14v0A164.58,164.58,0,0,0,235,2.19Zm2,4a160.49,160.49,0,0,1,58.13,11.58h0a160.26,160.26,0,0,1,52.17,34.1l-17.8,17.8a2.77,2.77,0,0,1-1.73,0c-1.16-.5.5-1.68.5-1.68V66.67l-1-1s-2.83.33-3-.17-.66-2.7-.66-2.7l-.17-2.87-1.16-.5-.17-1-1.83.17v-2l-1-.34-1-.51-.17-2-3.66-.17-1.16-1.69-1.33-2-4.16-.34-1-1-1.67-.34-1.16-.5-.5.84-3.16.17-.16,1c-1,.5-3.67.47-5.78.47q-5-2.54-10.13-4.63l-1.45,3.69q4.15,1.7,8.19,3.67c-.2.59-.44,1-.81,1-.83,0-.5,2.19-.5,2.19a20,20,0,0,1,2.83.17c.66.17.66,1.85.66,1.85,2.5-.16,3.5,3.21,3.16,4s1,.85,1,.85a14.23,14.23,0,0,1-.33,3.37c-.33.68,2.16,1.18,2.82,2.19s-.33,4.39-.83,4.56,1.33.67,1.17,1.52.49,0,.66,1.35.5,4.22.5,4.22l2.32.16c.34-2.19,4.62-2.27,5.32-2,2.83,1,5,5.4,5,6.41s-1.83,1.18-1.83,1.18l.08,1.1-5.83,5.83c-.6-.38-1.21-.56-1.55-.35-.83.51-.5-3.54-.5-3.54s1.5-1,2.16-.51-5.65-8.43-7-7.59-4.32-.84-4.15-2.36-6-6.58-6-6.58-2-1.35-2.33-.34-1,1.69,0,2.19.83-.84,2,.34,3.32,2.7,2.49,3.71a4.41,4.41,0,0,1-1.83,1.35l1.17,1.36h1.83l.33,2.86s2,1,2.49,2.2a3,3,0,0,1,.32,1.79,101.35,101.35,0,0,0-11.61-7.68,2.05,2.05,0,0,0,0-.86c-.33-1.18,1.33-1.69,2.16-.34l1.67-.17.33-1.52L286,74.94H284.2s-.16,1.35-1.33.84-.5-.34-1.49-.51-.72,1.71-.55,2.58c-2.57-1.32-5.19-2.54-7.87-3.63h0a99.87,99.87,0,0,0-36-7.4V52c1.08,0,1.56-.38,1.68-.84.16-.68.33-.84,1.32-1s-.16-2.2-1.16-2a2.06,2.06,0,0,1-1.84-.56V39.9a126.67,126.67,0,0,1,45.82,9.26l1.45-3.7A130.81,130.81,0,0,0,237,35.93V6.21Zm27.84,7.06-1.56,1-1.07-.68-.52.86,1.33.84.26.17.26-.17,1.84-1.18-.54-.85Zm7.6,4.08-1.31,1.06-.85-.86-.7.72,1.16,1.18.32.32.34-.28,1.67-1.35-.63-.79Zm-160.29.83c-16.53,6.44-34.28,13-45,30C60.84,58.1,59.93,69.85,55,80.1c9.15-8.6,19.8-15,27.56-25.22,9.33-12.33,17.44-26.05,29.58-36.7Zm245.74,0c12.15,10.65,20.26,24.37,29.59,36.7C395.22,65.14,405.87,71.5,415,80.1c-4.94-10.25-5.85-22-12.13-31.93-10.74-17-28.48-23.55-45-30Zm-97.43,2.07c-.71.07-1.41.36-1.5.7-.16.67-1.16.84-1.16.84l-3.82.34c-.33,1-2.33,1.69-2.5,1h0c-.37-1.48-2.5,1.86-.33,2.53a8,8,0,0,0,4.31,0l.5-1,8.31.17a4.94,4.94,0,0,0,1-1.69s2-.67,2.82-.34.17-2.36-.66-2a6.93,6.93,0,0,1-2.49.17h-3c-.09-.59-.79-.76-1.5-.7Zm-14.3,3.4-2.16.84L241.65,26l-2.49.34-1.33,1.52,5.32.5,1,1.69,3.83.34,2.49,2.53c2.17.68,2.66-.34,1.34-1.52h0l-2.16-2.19V27.36l-.66-.67-.67-2.36-2.16-.68Zm-178.61,17C59.1,42.83,52,48.29,45.71,55.29,32.49,70,33.63,91.57,35.4,110.85A81.39,81.39,0,0,1,35,128a62.58,62.58,0,0,1,18.26-21.84c17.18-13,36-29.76,36.26-51.84C83.8,70.19,66.49,76.76,55,87.62A53.89,53.89,0,0,0,41.5,107.46l-.42-.34c1.44-6.35,4.13-12.11,6-18.26,5-16.82,4.12-36.93,20.49-48.18Zm335,0C418.85,51.93,418,72,423,88.86c1.83,6.15,4.52,11.91,5.95,18.26l-.41.34A54.09,54.09,0,0,0,415,87.62c-11.51-10.86-28.82-17.43-34.52-33.32.26,22.08,19.08,38.86,36.27,51.84A62.67,62.67,0,0,1,435,128a81.37,81.37,0,0,1-.43-17.13c1.77-19.28,2.91-40.9-10.31-55.56-6.31-7-13.39-12.45-21.82-14.61ZM312.27,44c-1.35,0-3.32.89-3.12,1.89a2.68,2.68,0,0,0,2.16,2l2.49.84s3.11,3.67,3,1.86c-.34-5.06-2.66-5.23-3.5-6.25a1.33,1.33,0,0,0-1-.37Zm-52.12,2-.67,1.51.91.42.67-1.52-.91-.41Zm3.1,1.66c-.13-.12-1,1.24-1.69,1.56.8.42,1.87,1,1.87,1a2.11,2.11,0,0,1,2.16,1.51c0,.51,1.83.34,1.83.34l.17-1.18-1.33-1.69-1.16-.84s-1.83-.17-1.83-.67c0,0,0-.06,0-.06Zm-1.69,1.56c-.76-.4-1.29-.62-.45,0C261.23,49.39,261.39,49.35,261.56,49.28ZM256,48.79l-.1,1,1.43.14,1,1.64.84-.54L258,49.19l-.13-.2-.25,0ZM217.58,53c-.91,0-1.74.2-1.68.5.16.84,1.49,1.86,1.49,1.86s2.49.17,2.66.68,1.83.67,2,.16.83-1.52-.67-1.52-1.16-.84-1.66-1.35a4.06,4.06,0,0,0-2.14-.33ZM350.1,54.68a160.42,160.42,0,0,1,34.06,52.07h0A160.6,160.6,0,0,1,395.79,165H366.07a131,131,0,0,0-9.23-46.49q-1.26-3.17-2.69-6.27c.27-.89.78-1.85,1.87-1.52,1.66.51.5-3.71.5-3.71s-2.33-1.69-2.17-2.53-2.32-2.53-2.16-3.21-2.16-2-2-2.7S349,96,349,96l-2.49-2.36-.33-1.52-2-.17-4-4.89.16-1.35-1.16-.17V83.71L338.07,83l-1.84-.17-3.65-4L332.25,77h-1.83l.26-2.86L350.1,54.68Zm-90.32,0v1.52l1.82.17L261.11,55l-1.33-.34Zm-139.87,0L141,75.76a131.66,131.66,0,0,0-24.15,34.55A130.25,130.25,0,0,0,103.94,165H74.22A159.82,159.82,0,0,1,90.61,96.15h0a161,161,0,0,1,29.3-41.45Zm148,7.87c-.19,0-.31.09-.31.22,0,.5.66.5,1,1.51s.17,2.7,1.67,3,1.82.67,2,1.35,2,.84,2,.84l1.33.68,4,3.37V72.23s-.17-1.34-1-1.34-2.33-1-2-1.69-2.82-1.35-2.82-1.35-2.83-2.7-1.83-2.36.5-1.18.5-1.18a10.62,10.62,0,0,1-2.5.17c-.5-.17-.33-1.69-.33-1.69a6.37,6.37,0,0,0-1.68-.22ZM176.52,63.8l-.71.71,1,1,.71-.72-1-1Zm-143.91,7c-.43-.08-.67.26-1,.42-11.41,14.55-19,30.49-19,50,0,24.14,13.88,41,15.61,63.65,3.58-23.65,23.43-40.45,33.71-61.26a83,83,0,0,0,7.61-26.2,28.6,28.6,0,0,1-7,10.34c-13.35,12.66-29.1,25.14-32.13,43.07a61.78,61.78,0,0,1-1.4,7.68c-.58.25-.58-.41-.83-.57l1.66-22.25C31.48,114,20,89.86,32.6,70.75Zm404.79,0c12.56,19.11,1.12,43.23,2.74,64.9l1.66,22.25c-.25.16-.25.83-.83.57a61.78,61.78,0,0,1-1.4-7.68c-3-17.93-18.78-30.41-32.13-43.07a28.6,28.6,0,0,1-7-10.34,82.9,82.9,0,0,0,7.61,26.2c10.28,20.81,30.13,37.61,33.71,61.26,1.73-22.66,15.61-39.51,15.61-63.64,0-19.54-7.61-35.48-19-50-.33-.16-.57-.5-1-.42ZM233,70.77v29.72a66.28,66.28,0,0,0-26.2,6.24l1.82,3.48h0A62.2,62.2,0,0,1,233,104.46v27a35.37,35.37,0,0,0-10.11,2.06h0l-.16-1.86.83-.5-1.33-.51-1,1.35-.33,1.52-1.66.34v.84h-1.16v1a35.5,35.5,0,0,0-6.79,4.78l-19.07-19.07a62.07,62.07,0,0,1,16.45-11.15l-1.82-3.49a66.75,66.75,0,0,0-17.42,11.85l-21-21A95.86,95.86,0,0,1,233,70.76Zm4,0a96.16,96.16,0,0,1,34.53,7.13A94.85,94.85,0,0,1,280.23,82a1.35,1.35,0,0,0,.52.28,96.34,96.34,0,0,1,13.43,8.8v0a2.46,2.46,0,0,0,1.5,1.69l.75.09c.53.44,1.05.89,1.58,1.35v1.43c1.16-.3,2.95,1.08,3.28,2.22l-20.67,20.66A66.11,66.11,0,0,0,237,100.5V70.78Zm-93.26,7.74,19.06,19.06A100.53,100.53,0,0,0,144,125h0a99.43,99.43,0,0,0-9.21,40H107.91a126.44,126.44,0,0,1,35.82-86.48ZM313.51,91.26c2.32,1.36,4.06,4.51,3.77,5.1s2,.51,2,.51c.33-3,3.16-2,3.32-1s.67,3.21.67,3.21l.83,1.52,1.16,1.18,1.83-.17.5,1,2.16.34a18.73,18.73,0,0,1,2,2.53c.17.51,2.66.34,3.32.51s1.67.67,1.83,1.52a7.9,7.9,0,0,0,1.17,2.19s2,.5,2.16,1.18a13.94,13.94,0,0,0,1,2.19l1.65,1.35.17,1.52,1.83.17.5,2,3-.16,1.66-1.19a13.55,13.55,0,0,0,1.41-.87c.6,1.38,1.19,2.76,1.74,4.16A126.84,126.84,0,0,1,362.09,165H335.18a100,100,0,0,0-1.28-14.11c.17-.68.25-1.28,0-1.53-.49-.51.5-2.87.5-2.87a3.28,3.28,0,0,0,0-2.7c-.66-1.35.17-2.87.67-3.54l-1.33-.68-1.33-.17-1,.18c-.3-1.08-.63-2.14-1-3.21h0l.83.16v-1l-1.21-.33c-.23-.71-.49-1.4-.74-2.1l-.21-3.47-1.17-.85.33-1.35-1.32-.5.66-2.2-1.16-2.36h-1.69q-1.19-2.4-2.51-4.74a2.18,2.18,0,0,1,.71-.31,5.07,5.07,0,0,1,1.32-.28l-.16-1.75-1.49-1-.5-2s-1.83.33-1.66,1.35a.56.56,0,0,1-.3.53c-1.16-1.86-2.38-3.69-3.66-5.47a1.51,1.51,0,0,1,.13-.29c.66-1.19.33-1.86-.83-2.2s-1.17-.34-1.5-1.69a2.41,2.41,0,0,0-1.66-1.68l-.5-2-1.24.78c-.66-.76-1.33-1.52-2-2.26l.59-1.9a1.53,1.53,0,0,1-1.17-.9l5.21-5.21ZM324.26,117v.11S324.39,117,324.26,117ZM206.72,95.3l-.64.78,1,.84.64-.78Zm-3.81.72.17,1.86h2.49c1,0-.83-1.18-.83-1.18s-2,.17-1.83-.68Zm110.55.3-1,.11.17,1.52,1-.11-.17-1.52Zm-147.91,4,21,21a66.89,66.89,0,0,0-11,15.61c-.74,0-1.43.14-1.64.7-.5,1.34-2.66,1-2.66,1l-.34.67-1.66.34-.33,1-2,.34,5-.16c1.34-.17-.5,2.87-1.33,2.7l-2.32.17-.83.84h-2.16l-1,1.36-3.16-.17s-1.83,1.51-1.66,2-.33,2-.83,2-1.5,1.52-1.17,2-1,2.19-1,2.19l-.33,1.69-1,.34v4.55l-2,1.35v2l-.91,1H138.79a95.76,95.76,0,0,1,26.78-64.65Zm138.53.33c.73.66.65.92,1.57,1.59a1.92,1.92,0,0,0,.93.38c.54.6,1.07,1.21,1.6,1.82l-.38.5c0,1.94.91,1.38,1.81,1.22l.82,1c.09,1.12.1,2.72,1.86,2.49h.06a97,97,0,0,1,5.88,8.94l0,.17h.05c.29.5.57,1,.84,1.49a3.56,3.56,0,0,0-.56.7l-2.66.34V124l-1.33.5.17,1.69,1.83-.17s0,2,.49,1.19,4.66.16,4.33,2.19c-.14.83,4.15,3,3.66,5.73a2.44,2.44,0,0,1,.83.29q1.2,3.48,2.13,7l-.31.6a5.19,5.19,0,0,1,.61.53c.52,2.08,1,4.18,1.34,6.3-.13,1.84-.54,3.6-1.45,4.14-2,1.18.16.51.16.51l-.33,3.71c.5,1.69,1.33.84,1.83,0a4,4,0,0,1,.83-1c.25,2.54.42,5.1.47,7.68h-20.1c.1-.14.35-.45.35-.45l.83-2.37,2.82-.84.33-2.19L314,159s1.66-3,2.49-3,6.32,0,6.82-.34a9.37,9.37,0,0,0,1.49-3.54c0-.5,1.34-.67,1.83-.84a6.44,6.44,0,0,0,2-2.2c.33-.67-.83-4.89-1.5-4.22a5.27,5.27,0,0,1-2.16,1l-.5,1.86-.83.68a4.05,4.05,0,0,1,0,1.68c-.16,1.18-1.66,1.86-1.66,1.86l-.66.84a30.39,30.39,0,0,1-4.49,0,1.34,1.34,0,0,1,.5-2.53c1,.17-.17-2.87-.17-2.87l1.33-.17s.16-3,.66-3-.16-1-.83-1.52-1.49-2.19-2.16-2a21.17,21.17,0,0,1-3.32,0l-.5,1-1.83.33s.16,1.31-.16,1.69c-1,1.18-4.83,3.71-3.17-.51l.5-1v-1.52l-3-.17s-1.49-.51-1.49-1.18a9.2,9.2,0,0,0-.17-1.52l-3.49-3.88-4.16-.51-.33-.84-2.49-.34a6,6,0,0,0-1.09-.43,65.15,65.15,0,0,0-3.79-5.43c0-.13-.09-.29-.11-.38-.15-.6-2-3.17-3-3.29-.37-.42-.74-.84-1.12-1.25l20.66-20.67Zm16.38,2.08c-.23,0-.36.19-.36.52,0,.68.84,1,.5,1.86a1.1,1.1,0,0,0,1,1.52,4,4,0,0,1,1.83.67,4.68,4.68,0,0,1,1.66,1.52l1.67-.51s.16-1.68-.5-1.18-1.17-1.18-1.83-1-1-.67-1.66-1.52-.5-1-1.33-1.52a1.78,1.78,0,0,0-1-.35ZM237,104.47a62.23,62.23,0,0,1,40.83,16.91l-1.07,1.08c-.54-.54-2.35-.87-2.35-1.46s-1.66-1.52-1.5-.51-1.16,1.52-1.5,1.18-1.33,1-1.33,1c0,.51-.33,1.18.67,1.35s2.83-.67,3,.34a8.48,8.48,0,0,0,.19.91l-6.58,6.59a10.88,10.88,0,0,1-1.75-.08c-.5,1.52-2.83-.16-2.16-1.18a3.44,3.44,0,0,0,.66-1.68l-.83-.17-1,1.85c-2.32,0-3,1.35-2.49,2.2s-.67-.17-1,1,.17,1.18,1.17,1.69-.5.5.16,1.35c.43.53,1.38.39,1.73.52l-1.27,1.26a5.44,5.44,0,0,1-2.45.07,1,1,0,0,1-.49.75,35.85,35.85,0,0,0-8.77-5.31c.51-.38,1.37-.36,1.78-1.51a27.76,27.76,0,0,0,1-4.89s-2.67-.17-2.83.67-1.83,1.35-1.83,1.35-1.33.51-.83,1.18-1,1-1,1a3.94,3.94,0,0,1,.06.89,35.83,35.83,0,0,0-8.21-1.42v-27Zm88.45,5.72-2,.17c.5.68,1.5,1.18,1.5,1.86s-.33,1.18.66,1.35,1.67-.17,2,.67a5.83,5.83,0,0,1,.17,2.87c-.17.68.16,1.69,1,1.69s1,.17,1,.67,1-1.85,1-1.85a7,7,0,0,1-1.5-2.2,26.44,26.44,0,0,1-.83-2.7c0-.33-1.16-.67-1.66-.84s-1.33-1.69-1.33-1.69Zm-15.85.67-1.66.17.09,1,1.67-.16-.1-1Zm1.05,1.19v.85h1v-.85Zm-1.33,1.69a2.61,2.61,0,0,1-3,.68s-.33,3.2-1.33,3.87h-2.33a8.52,8.52,0,0,0,1,1.36c.5.5,1.66,1.51.5,2.19s.16.5.16.5-.16,3.55-1.66,3-2,1.86-2,2.53,5.9.93,5,0c-.5-.51.67-1.69.67-1.69s4,.34,4.82.34,1.5-.17,1-1-2-.67-2-.67a5.77,5.77,0,0,1-3.82-.51c-1.83-1,.33-1.35.66-1.35s1.83-1.18,1.16-2,0-2.37,0-1.69,1.83,1,2.17.5a2.34,2.34,0,0,0-.83-2.53c-.84-.5,1.49-.84.83-1.68a7.18,7.18,0,0,1-1-1.86Zm3.32,5.06V120h1V118.8Zm2.24.6-.5,1,.9.45.5-1-.9-.45ZM331,120.76c-.37.12.34,2-.1,2.26s-.83,1-1.33,1.52,1,1.18,1,1.69.33,3,.33,3,1.16.5,1.33,1.18,0,2,.5,2.19,1.49.84,1.16,1.52a6,6,0,0,0-.33,2l.66,1.52,1.33.84s.5-4-.33-4.21-.5-2.53-.5-2.53.83-3.21-.5-3.21-.33-1.69-1.16-2.19-.33-2.87-.66-3.55-.34-1.51-1.17-2a.36.36,0,0,0-.23-.07ZM290.65,124l-1.66.16.09,1,1.67-.17-.1-1Zm-25.22.06a5,5,0,0,0-1,.12l-2.66.34-.16,1.18,1.82.17s.83.68.83,1.18,1.17,1,1.84,1a8.36,8.36,0,0,0,2.49-1.35s.83-2.36.17-2.19-2,1.18-2.16.17c-.09-.51-.63-.63-1.15-.63Zm-76.06.09,16.28,16.28-1.57,0c-.67,1.51-2.33-.17-2.33-.17-.33-1-2.66,0-2.66,0,0,1.85-3.16-.85-3.16-.85l-5.82-4.22c-3.32-3-8.31.85-8.47,1.69.09,1.28-1,1.31-2.09,1.08a62.55,62.55,0,0,1,9.82-13.76Zm65.41.43-1,.23.33,1.51,1-.22-.33-1.52Zm5.46.28-3.65.16,0,1,3.65-.16Zm-31.23.33v1h1.33v-1Zm8.56.17-.14,1,1.16.17.14-1-1.16-.16Zm2.15.51-.14,1,1.16.17.15-1-1.17-.17Zm-13.46.34-.14,1,1.16.17.14-1Zm27.36,0-.5.17.32,1,.5-.17Zm40.27.42-.5,1.18.91.4.5-1.18Zm-12.35.22s1,.17,1.83.41c.79,1,1.55,1.95,2.28,3l-2.12-.33-1.33-.17-2.49-.17a7,7,0,0,0-3,3.71c-1.15,2.18-3.64-.14-3.57-1.69l4.43-4.43a6.87,6.87,0,0,0,.8,0,30.1,30.1,0,0,0,3.16-.34Zm-39.57.34v1h1.33v-1Zm-16.82.2-.25,1,1.34.34.24-1Zm-.47,1.39-1,.16.17,1,1-.16Zm19.75,0-1,0,0,1.19,1-.05,0-1.18Zm52.34.43a10.41,10.41,0,0,0-1.77.17c-.83.17-.66.84,0,1.69l2-.34s1.5-.68,1.16-1.18c-.17-.25-.75-.34-1.39-.34Zm-11.1,1c.63.87,1.24,1.75,1.82,2.65a2.64,2.64,0,0,0-.14,1.55c.5,2.54,1.33,3.55-.33,3.55a1.93,1.93,0,0,1-2-1.35s-1.33-.51-1.33.16-.5,2,0,2.7-.67,1.69-1.17,1.18-1.83-2-1.49-2.52-2.33-3.72.33-4.22-.17-2,.83-2.36l1.33-.68h1.33l.81-.66Zm-277.42.64c-2.66,5.6-3.73,11.93-5.14,18-3,15.79,0,32.55,4.29,47.06,5.37,18.15,23.14,31.14,32.15,47.77l1.24,1c-1.32-9-2-18.75.57-27.37,3.88-13.79,8.77-27.19,11.33-41.49,2-11.1,4.28-23.56,3-34.32-1.48,5.8-3,11.53-6.2,16.46-12.1,18.73-24.52,40.7-16,64.47-.2.26-.48.59-.79.42-3.41-7.86-4.16-16.8-6.37-25.22-5.87-22.33-23-41-18-66.8Zm453.55,0c5,25.82-12.14,44.47-18,66.8-2.21,8.42-3,17.36-6.37,25.22-.31.17-.59-.16-.79-.42,8.48-23.77-3.94-45.74-16-64.47-3.19-4.93-4.72-10.66-6.2-16.46-1.31,10.76,1,23.22,3,34.32,2.56,14.3,7.45,27.7,11.33,41.49,2.56,8.62,1.89,18.34.57,27.37l1.24-1c9-16.63,26.78-29.62,32.15-47.77,4.29-14.51,7.26-31.27,4.29-47.06-1.41-6.11-2.48-12.43-5.14-18Zm-227.1,4.36.32,4.05-1.83-.63H232l-.5-1-1-.16v3.71l1,.84.83.84,1.67.17.33,2,4.15.17.5.84,2.5.17,4.82,4.89-.33,1.52-.84.51c.34,1.18-2.16.5-2.16.5v1l1.16.17,1.17.67,1.66-2.86c1.83-1.18,2.66.5,2.83,1.51s-.84.85-.84.85v2.36l1,.34a2,2,0,0,1-.66,3.2l-.5,1.69c-.5,1.52-2.33,1.18-2.33,1.18l-.66,1-2,.51,3.95.51c.37-1.35,1.37-1.69,1.87-1a3.73,3.73,0,0,1,.5,1.86l1,.17-.17,1.85,1,.34v5.4l1.16,1.35c2-.84,2,.51,1,1.18s-.34,3.71-.34,3.71l-.83.85v1.35l-1,.67v1.86c-1.67-.85-3.66-.51-4.16,0-1.5-1-4.65-.68-4.65.17,1,1.35-1.16,1.68-1.16,1.68l-1.17,1.35c.83,1.69-.83,1.86-.83,1.86v3.2l-2,1.86.12,3c-1,.1-2.06.16-3.11.16a31.42,31.42,0,0,1-20.91-7.89.85.85,0,0,0,.3-.3,3.24,3.24,0,0,1,2.16-1.52l.5-1.18,4.49.17c.33-1.86,2.49-1.18,2.49-.34s1.66.17,1.66.17l1.17-1.85h1.82l.17-2,.83-.51v-3A3.18,3.18,0,0,0,232,177l.67-.84-.34-1.18c-1.33-.51-.66-1.69.17-1.35s-1.17-1.52-1.17-1.52c-1,.85-1.82-1-1.82-1H227v-2.36l-.33-2.2-2.49-1.18-1.83,1.69-.33,2.36v1.52l-1.67.34-.33,4.55-1.33.51.17,1.69-1.83.5-1.83.51-.33,2.19-1.33.84-.67,2-.81,4.78a31.79,31.79,0,0,1-5.68-8.2,12.08,12.08,0,0,0,.35-2.32c-1.5-.68-.67-3,1-1s-1-4.05-1-4.05l-1.33-1.18-1.73-.16a32.77,32.77,0,0,1-.39-5c0-.69,0-1.38.08-2.07a1,1,0,0,1,1-.23l1,.85,1.49,1.18.17,1-1,.5-.16,1.35.5,1.86h1.32c.5-2.7,4-2.7,5-1l1-2.36c-2.33-1.18,0-3,.62-2.2s2.21-2.19,2.21-2.19,1.16,1.52,0-.51a2.08,2.08,0,0,1,.83-3c-.34-2,2.16-1.69,2.16-1.69l.17-2.7-2.33-.17c-.5,2.36-2.5.34-1.5-.17a9.22,9.22,0,0,0,2-1.51V152.2l1-.34.17-1.69h2.49l2.16-1,.5-.84,2.33-.17,3.32-3-.33-1.35c-2,0,0-1.52,0-1.52l.33-2.52H228l-.32-3.58a31.82,31.82,0,0,1,7-.85Zm101.24,9.79-.17,1.35,1,.13.17-1.35-1-.13Zm-.62,4.55-.5,1,.89.45.5-1Zm-172.51,6.7a4.58,4.58,0,0,1,2.73.76l2.33-.17a3.77,3.77,0,0,1,1.21,1.3c-.21,1.57-.35,3.15-.45,4.75a6.21,6.21,0,0,1-.43.7,3.21,3.21,0,0,0-.35,1.33h-6.32l0-.15-1.83-.17c-2-1.18-1-5.56-1-5.56,1.38-2.07,2.86-2.72,4.08-2.79Zm57.75,3.12-.33.85h-.83l-.17,1.35h1l.17,1-.67.67-.33.85-1.33.34-3,2.87-.17,1.34-.83,1.19-1,2.53-3.5.16-.66,3,.49,2.53,3,1.18.34-1.68,1-.51.17-1.69.66-1.18,1-1.18.33-1.35,1.66-1,2-.34.83-1,.34-2,.11-1.52.72-1,2-.84v-3.2h-1l-.16-1.19-1.84-.17Zm104.31,1-.17,1,1.83.34.18-1Zm-4.16,1.46-.49.28-1.24.7-1.08-.68-.52.85,1.33.84.25.16.25-.14,1-.57.13.31.92-.37-.33-.84-.22-.54Zm14.49,7h26.91a126.26,126.26,0,0,1-11.94,51.77h0a127.67,127.67,0,0,1-23.93,34.67l-.74-.74c-.09-1.85-.22-4.26-.22-4.26l-.84-.84-.16-4.22c.66-2.2-3.16-5.4-3.49-4.73s-2.5.17-2.5.85-1.32,4-.66,5.23a1.3,1.3,0,0,1,.08.17L307.26,236.4A99.73,99.73,0,0,0,335.2,169Zm30.88,0H395.8a159.77,159.77,0,0,1-16,67.94h0a161.55,161.55,0,0,1-29.73,42.31l-21-21a131.1,131.1,0,0,0,24.65-35.57h0A130.43,130.43,0,0,0,366.08,169Zm-58.17,0h23.32A95.68,95.68,0,0,1,323,205.88a96.65,96.65,0,0,1-18.42,27.51c-.32-3.39-1.09-7.12-1.09-7.12l-1.33-.68.33-4.05h-1.82l-3,3.89-.33,1.07-1.7-1.71.87-.88-.17-2,1.17-1v-1.68l1-.34.16-3.71.83-.17v-8.1L297,204.51c-.17.84-2.83.84-2.83.84s-.66,1.18-1.16,1.18.66,1.52.33,2.53-1.66,1-1.66,1l-2.5.68-.66.84h-2.66l-.22-1.47c.27-.32.53-.65.79-1l2.09-.58,1.66-.85L291,206c.17-1.68,2.16-1.51,2.16-1.51s3.83-3.21,4-4.73,1.5-5.73,3.83-5.73h4.32c1.66-.68,1.16-2.87,1.16-2.87l2.16-.34L309,192s3,.34,3.32-.17,1-1.68,1.83-1.18,3.49-1.18,3.49-1.18c.17-1.18,4.32-.67,4.32-.67l.5-1.52s-2.82-3.88-3.32-3.88-3.16-2.36-3.49-1.52c-2.66-.67-2.5-4.39-2.5-4.39l-1-2.36c0-1.35-2.49-4.22-3-3.88a2.56,2.56,0,0,1-1.24-2.32ZM138.8,169h11.66l.12.95-2.49,2.7.33,2.7-1.5.5-.33,1.18-.67,3.55,1.67.17c.83-.34.66,2.19,0,2.52s-2.5,1-1.5,1.69-2.66.51-2.66-.5-2-1.86-2.49-1.52c-.29.19-.68-.34-1-.83A96.62,96.62,0,0,1,138.8,169ZM156,169h.81a3.08,3.08,0,0,1,.76.27l2.32.17.23-.44H168l.67,4.32-2.17,1.85c-1.82,1-1.82,3.38.17,3.88,1.33.17.83,3.38-1.17,1.18-3,0,1.67,2.7.34,2,3,1.52,2.33-1.35,2.33-1.35l1.5-1.21a66.91,66.91,0,0,0,2.64,9.71h0a66.11,66.11,0,0,0,14.25,23.22l-21,21q-2.06-2.13-3.94-4.37a8.84,8.84,0,0,1,.91-2.14c2.16-1.35-.5-3.54-.5-3.54.33-2-1.17-4.39-1.17-4.39-3-2-2.16-5.91-2.16-5.91v-2.7c-2.49-2.36,1-2.7,1-2.7,1.16-2-.83-3.54-.83-3.54l-.17-2.19-2.66-.34-.33-7.93-6-8.6c-1.17-.34-.34-2.36-.34-2.36,1.5-.85-.33-2.87-.33-2.87l-.17-3.71,3.49-.34.84-1.35h1.66l-.17-4.39A1.83,1.83,0,0,1,156,169Zm41.57,0h1.88c.07,1.18.2,2.35.38,3.51l-1,.3-.33-.67L198,174h-3l-.16-2,1.82-.51.67-1,.27-1.45Zm49.26,2.3c-.28,0-.58.16-.83.84v2.19s2.33,3.71,3.16,4.22,2.17-.61,1.33-1.18c-2.49-1.69-2.33-3.88-3-5.4a1.06,1.06,0,0,0-.67-.67Zm-86.93,1.51.16,1.18h.83c1.33,2.36.17,8.1.17,8.1s-2,.17-2.33-.84-1.16,2.19-.5,2.7,3,0,3.16,1.85,1.5-1.18,1.5-1.18V173.12l-3-.34Zm80,3.38-3,2.19c1.49.18,1.66,1.7,1.83,2.37.36,1.47.33-2.37,1-2.19s.17-2.37.17-2.37Zm-66.49,1.38a6.62,6.62,0,0,1,3,3.17c0,.51,6.64.17,6.64.17,1.83,1.18,2.5,4.22,2.5,4.22,1.83-2.37,5.65-.17,2.82,1.18,2.66,1.68,2.66,3.2,2.66,3.2,2.16-.67,2.16,1,2.16,1.52a17.16,17.16,0,0,0,.67-2.53c-2.5-1.86,3.32-2.53,1.66.84l-1,1.52,1.67,1.35.16,3.88c3.66-.34,2.66-4.89,2.66-4.89l1.66-.34c0-1.52,1.16-.67,1.16-.67-.8-4,.79-5.67,1.84-6.34a35.22,35.22,0,0,0,4.85,6.92L189.4,209.8a61.66,61.66,0,0,1-16.05-32.26Zm150.57,3.93c-1.36-.09-3.12.93-2.62,1.61,1,1.35,2.66.67,3.32.84s1.33.51.67-1.51a1.39,1.39,0,0,0-1.37-.94Zm-158,2.37a.7.7,0,0,0-.7.71h0a.7.7,0,0,0,.7.71.72.72,0,0,0,0-1.43ZM164,186.11l-2.5,1.69-1.66-1v4.05l2.67,3.53,1-2.36.34-1.52-1.17-.5.17-2.52,1-.18.16-1.18Zm61.51,4.22-1.5.17.17,2.36,1,.84,1.83.51s2.5-.68,2.66-2.7l-3.82-.17-.33-1Zm20.95,1.29c1.39,0,1.11,3.37,1,4.5a31.14,31.14,0,0,1-3,1.12v-3.71l1.66-1.85a1.11,1.11,0,0,1,.34-.06Zm-35.21,1.94A35.27,35.27,0,0,0,232,202.5v.06s-.62,1.52.13,1.78.49.37.87.75l-.38.89c-.61-.84-1,.63-.62,1s-.87.13-.87.64-.38.75,0,1-.13.38-.63.76,2.12.5,2.12.5-.5-1,.13-1h.27v1.67c-.23,0-.44-.09-.69-.16v1.18l-1.33.17,1.17,1.34.85.11V216l0,.17c0,2.19-5.48.67-6,.17l-.17,3-1,.16.16,2-.16,2.87,1.82-.34v1.18l4.49.17.86-.92v3.12l0,.16-3,.34-1.33.68-.5-1h-1.33l-.82,1.15a63.16,63.16,0,0,1-11.51-2.79h0a62.2,62.2,0,0,1-22.31-13.5l19.06-19.07ZM52.83,195.19c2.23,14.7-3.59,27.68-4.94,41.66a62.68,62.68,0,0,0,5.36,32.31c1.32,2.85,3.71,5.44,4.39,8.35-4.31-3.88-7.37-8.84-10.33-13.65-13.9-22.49-43-37.11-45-64.48-1,12.17.06,25.08,4.12,35.9,5.64,15,16.48,26.55,29,36.39,12.91,10.18,28.33,18.13,40.1,27.08-2.32-5.86-6.09-11.27-7.62-17.45-6.92-28-3.06-60.26-15-86.11Zm364.38,0c-12,25.85-8.11,58.16-15,86.11-1.54,6.18-5.3,11.59-7.62,17.45,11.76-8.95,27.18-16.9,40.1-27.08,12.49-9.84,23.33-21.38,29-36.39,4.06-10.82,5.11-23.73,4.12-35.9-2,27.37-31.12,42-45,64.48-3,4.81-6,9.77-10.33,13.65.67-2.91,3.07-5.5,4.39-8.35a62.7,62.7,0,0,0,5.36-32.32c-1.35-14-7.18-27-4.94-41.65Zm-144.85.58c.44,0,.75.22.56.79-.5,1.52,0,2.2,0,2.2,2.16-2,4,.16,3.82.67s1.17,1,2,.51,1.82,1.52,1.49,2.53-3.32.84-3.49-.17-.67-.68-1-.17a2.43,2.43,0,0,1-2.25.5l-.71-.71c.07-.18.23-.36,0-.64a1.14,1.14,0,0,0-.86-.25l-1.52-1.51c0-1,.31-2.36.21-2.79s1-1,1.77-1Zm-108.15.62-1.16.17-.17,1.35,1.33.17v-1.69ZM372,197.86a4.38,4.38,0,0,0-2,.73l.55.84a2.7,2.7,0,0,1,1.64-.54s0,0,0,0l1-.17a.9.9,0,0,0-.54-.71,1.44,1.44,0,0,0-.63-.1Zm-207.3,1.7a.72.72,0,0,0,0,1.43.72.72,0,0,0,0-1.43Zm82.89.8a3.5,3.5,0,0,0,.25.93l.84.33-1.5,1.19-1.33,1.52-1.66-.51-2-.17-.66-1.18-1.17-.17-.16,2.36-.83,1-2,2c2.1,0,.7,1.13-.32,1.62v-6.75a35.93,35.93,0,0,0,6.32-.92l.32.31h1.49l.09-.82c.79-.23,1.56-.49,2.32-.78Zm-81.73,2.74a.71.71,0,0,0-.71.72h0a.71.71,0,0,0,.71.71.72.72,0,0,0,0-1.43Zm62.83.53c-.84,0-1.54,2.57-1.87,3.23,0,0,.37,1.39,1.12,1.27s1.25-.51,1.87-.64.87-1.14,1.12-2.15a1.63,1.63,0,0,0-.25-1.52s-.62,1-1.62,0a.6.6,0,0,0-.37-.19ZM162.72,205l-1.41.16v1.19l1.41-.17V205Zm100.07,0H264l.17.84,5.08.48.24,0c2,1.18,1,2.7.33,3a5,5,0,0,1-1.83.34l-.33.68-4.32.33-.34,1.69c-2.16-.34-3,2-2.49,3.2a2.83,2.83,0,0,1,0,2.2l1.83.84,2.32-.67c.34-1.69,1.83-2,3.16-3s3.5,1.85,2.83,3.21c-.08.16-.13.27-.19.41a61.88,61.88,0,0,1-8,4.67h0a61.74,61.74,0,0,1-13.91,4.83l-.18-.13-1.82-.5-.17-2.53c-.33-1.69-3.49-1.69-3.33-.51s-5.93.51-6,.51v-4.65l1.66-1.77,3.82-.84c.33-1.69,2,.34,2,.34,1.66-.17,2,1,2,1l2.16.34c1.83.5.72.68.83,1.35.16,1,1,.67,1,.67l.33-2.19,1,.17-1-1.18-1.83-.85-2-.84c-1.34-1.86.33-1.52,1.66-1.35h2.16s2.5,3.37,2.5,4.22,1.16,1,1.16,1l1.49-.17.5,1.18H258l.5,1h3l.17-1.51-2.83-.51-.17-1.69-2-.5c-.67-2.87.5-3.72,1.33-2.36l1,.16-.33-2.53,1.16-.34-.33-3.54-1-.34V208l4.15.17a5.84,5.84,0,0,1,.17-3.2Zm120.31,7.7-.89.45a2,2,0,0,1,.15.7,1.06,1.06,0,0,0,.34.84.8.8,0,0,0,.67.13l-.19-1a.26.26,0,0,1,.2.15s0-.15,0-.23a2.67,2.67,0,0,0-.25-1.06Zm-1,1.87-1,.25c.26,1,.63,2,.64,2.08l.94-.36a19.25,19.25,0,0,1-.61-2Zm-78,1v3.21h1.17v-3.21Zm-35.92.83-1.32.84.52.86,1.34-.85Zm108.36,2.32c-.08.8.11,1.78.9,1.94l.2-1h0a1.37,1.37,0,0,1-.12-.85l-1-.1Zm-133.2,1.82v0Zm132.64.07a3.22,3.22,0,0,0-1.06.56c-1,.63-.62,3.17,0,2.53s1.37,0,1.5-1.9c.06-.95-.14-1.22-.44-1.19Zm-103.34,1.3,3.95,2c.5.67,2.66.5,2.66.5l.66.85a2.59,2.59,0,0,1,2.17.84c.83,1,5.15.17,5.15.17l1.16,1,1.83.68,3.08.1,1.92,1.92c-3,1.37-9.11.89-9.49.51a29,29,0,0,0-4-2s-2.66-2.19-3.16-1.51-2.82-.85-2.82-.34-2.16-1.18-2.16-1.18l-3.33-1.18,2.5-.51-.41-1.65.28-.19Zm-24,.48-1.16.85.49.5.5.84,1.16-1.85-1-.34ZM92.08,231.82v1.69h1.33v2.19h1l-.17-2.52-1.33-.51v-.85Zm242.83.85-.13,1.52,1.62.11.13-1.38-1.62-.25Zm-1.34,3.57-.32,1a1.41,1.41,0,0,1,.31.17l.21.87-.22.29.73.69a1.89,1.89,0,0,0,.59-1.73,2.06,2.06,0,0,0-1.3-1.25Zm-.32,1Zm-28.76,2,7.33,7.33c-.34,1.23-1.49,2-2.14,1.45s.83.84,1.16,1.52a1,1,0,0,0,1.67,0,7.65,7.65,0,0,0,.3-2l3.38,3.38c-.45.87-.88,1.75-.69,2.31h0l1.5.67.16,2.87c1.12,1.14,3.63,1.09,5.64.76l.68.68a127.32,127.32,0,0,1-20.13,15.88v-1.62c3-2.2,3.16-6.08.34-6.42-2.15-.25-1.17-2.53.83-2.86l1.16-.51v-1.52l3.82-3.54v-2.7L301.2,248c-1.7-.62-1.81-2.69-1.21-4.71,1.53-1.31,3-2.66,4.5-4.07Zm-204.1.34,1.17,3,.67,1.52,1.33,1.85,1.83,1.69.66-1.18L104.88,244l-1.16-.85-.83-2.36-2.5-1.18Zm-32.5,2.47c10.1,20.18,5.74,46.19,18.84,65.23,4.1,6,9.82,11.65,15.11,16.44l-.25.25c-4.79-2.23-9.1-5.57-13.46-9.19C65.21,295.72,30.74,293.29,17,262.23c3.72,22.8,21.82,43,41.36,55.8,18.59,12.17,42.4,10.82,63,17.63C102.35,320.29,99.46,297.2,91,277c-5.28-12.58-13.89-23.89-23.06-34.88Zm334.31,0c-9.18,11-17.79,22.3-23.07,34.88-8.5,20.25-11.39,43.34-30.46,58.73,20.64-6.81,44.45-5.46,63-17.63,19.53-12.8,37.64-33,41.36-55.8-13.72,31.06-48.19,33.49-71.11,52.55-4.36,3.62-8.68,7-13.46,9.19l-.25-.25c5.29-4.78,11-10.49,15.11-16.44,13.1-19,8.74-45,18.84-65.23Zm-260.74,7.3a5.26,5.26,0,0,1,3.65,2.38,3.24,3.24,0,0,0,1.12,1.26l-2.46,2.46c-1.55-1.6-3-3.24-4.49-4.9H140a1.44,1.44,0,0,1,1.5-1.2Zm98.44,9.31a5.43,5.43,0,0,1,2.78.83A5.22,5.22,0,0,0,247,260l1.84,2.23a95.47,95.47,0,0,1-11.8,1v-4A4.77,4.77,0,0,1,239.9,258.66Zm86.43,2.42,21,21a161.55,161.55,0,0,1-39.85,28.47A159.68,159.68,0,0,1,237,327.78V298.06a130.48,130.48,0,0,0,35.31-5.37l2.91.88.83,2.7,1.34-.17,1-.84,4-.17,2-1.86,2.16-.33,15.67-13.33a130.84,130.84,0,0,0,24.09-18.49ZM250.81,266l.35.78,2.83.84,2,.51.67,2.86,1.49.17.5,1.86c1.83,1.35-.5,4.22-.5,4.22v3.71l1.33.68L259.3,283l2.17,2.19,2.49.17,4.13,4.41a126.12,126.12,0,0,1-31,4.37V267.18A101.23,101.23,0,0,0,250.81,266Zm-40.19,2.75-1,.84-.49.42.52.38,1.17.84.58-.81-.64-.47.5-.42-.64-.78Zm11.85,12.08-.45.91,1,.52-.35.35.71.72.83-.84.49-.5-.62-.32-1.66-.84Zm-84.17,8.55,1.33,2,.16,1.52,1.66.5.67,1,1.17-.67-.84-2.2-2.16-1.85-2-.34Zm-37.45,1.9c12.46,16.78,16,41.16,38.8,49.75,4,1.51,8.66,1.76,12.15,4-4.39.67-8.23-.68-12.32-1.55-29.36-6.26-65.23,1.8-87.23-23.24,8.35,16.36,25.54,29.27,42.06,34.72,25.6,8.45,52.27-1,76.32-6.94,3.47-.86,7.68-.58,10.9-1.76-13.39-2.73-26.3-6.79-36.67-16.27-14.89-13.62-28.08-28.11-44-38.7Zm268.35,0c-15.93,10.59-29.12,25.08-44,38.7-10.37,9.48-23.28,13.54-36.67,16.26,3.21,1.18,7.42.9,10.89,1.76,24,6,50.73,15.39,76.32,6.94,16.52-5.45,33.71-18.36,42.06-34.72-22,25-57.87,17-87.23,23.23-4.09.88-7.93,2.23-12.32,1.56,3.49-2.22,8.12-2.47,12.15-4,22.79-8.58,26.34-33,38.81-49.74ZM210.85,345.57c-22.54,0-42.67,10.89-62.45,19.1-17.89,7.42-41.62,5.95-57.47-5,7.84,9.84,18.34,15.9,29.17,20,20.13,8,43.63,1.87,60.76-9.08,12.34-7.89,22.92-19.07,37.61-19.07a37.78,37.78,0,0,1,7.8.85c-20.63,8.26-39.38,22.82-54,36.8a75.78,75.78,0,0,0,9.47,8.61c16.33-16.88,34.84-35.15,53.3-42.69,18.46,7.54,37,25.81,53.31,42.69a76.4,76.4,0,0,0,9.46-8.61c-14.64-14-33.39-28.54-54-36.8a37.78,37.78,0,0,1,7.8-.85c14.69,0,25.27,11.18,37.61,19.07,17.13,10.95,40.63,17.11,60.76,9.08,10.83-4.11,21.33-10.17,29.17-20-15.85,10.93-39.58,12.4-57.47,5-19.78-8.21-39.91-19.1-62.44-19.1A83.58,83.58,0,0,0,235,349.32a83.51,83.51,0,0,0-24.17-3.75Z" transform="translate(-1.91 -2.19)"/></svg>