<?xml version="1.0" encoding="UTF-8"?>
<svg width="21px" height="20px" viewBox="0 0 21 20" version="1.1" xmlns="http://www.w3.org/2000/svg" xmlns:xlink="http://www.w3.org/1999/xlink">
    <!-- Generator: Sketch 64 (93537) - https://sketch.com -->
    <title>Shape</title>
    <desc>Created with Sketch.</desc>
    <g id="Page-1" stroke="none" stroke-width="1" fill="none" fill-rule="evenodd">
        <g id="Artboard" transform="translate(-1.000000, -2.000000)" fill="#000000" fill-rule="nonzero">
            <path d="M2.98188996,2.24133335 L3.88833335,3.148 L3.8,3.23743687 L20.7705627,20.2079996 L20.8593333,20.119 L21.3666663,20.6261097 L20.0261097,21.9666663 L14.4292636,16.3704135 C14.0775047,16.5664056 13.6995541,16.7212717 13.301866,16.8285576 L13,16.9 L13,19.08 C15.489899,19.4617845 15.9132657,21.2212572 15.9852522,21.8085585 L16,22 L8,22 L8.00876781,21.8621764 C8.05962111,21.354459 8.40542355,19.5936066 10.7568801,19.1228674 L11,19.08 L11,16.9 C9.11538462,16.5153846 7.61908284,15.0767751 7.15117205,13.224249 L7.1,13 L4,13 C2.95,13 2.0822314,12.1799587 2.00551277,11.1486946 L2,11 L2,4 L2.06033335,4 L1.64133335,3.58188996 L2.98188996,2.24133335 Z M17,2 L17,4 L22,4 L22,11 C22,12.05 21.1799587,12.9177686 20.1486946,12.9944872 L20,13 L16.9,13 C16.852859,13.2309911 16.7898842,13.4561487 16.7122542,13.6742943 L6.99933335,3.962 L7,2 L17,2 Z M4.06033335,6 L4,6 L4,11 L7,11 L6.99933335,8.939 L4.06033335,6 Z M20,6 L17,6 L17,11 L20,11 L20,6 Z" id="Shape"></path>
        </g>
    </g>
</svg>