<?xml version="1.0" encoding="UTF-8"?>
<svg width="522px" height="129px" viewBox="0 0 522 129" version="1.1" xmlns="http://www.w3.org/2000/svg" xmlns:xlink="http://www.w3.org/1999/xlink">
    <!-- Generator: Sketch 64 (93537) - https://sketch.com -->
    <title>Combined Shape</title>
    <desc>Created with Sketch.</desc>
    <g id="Permission" stroke="none" stroke-width="1" fill="none" fill-rule="evenodd">
        <g id="Artboard" transform="translate(-258.000000, -412.000000)" fill="#FDE2B5" fill-rule="nonzero">
            <path d="M743.217289,450.518426 L743.217289,457.667083 L742.894904,457.68165 C739.509041,457.860369 737.81611,458.785973 737.81611,460.458463 C737.81611,461.139288 738.545383,462.795961 740.003929,465.428482 L740.003929,465.428482 L751.968566,487.010618 L761.06169,467.811368 L761.223874,467.459055 C762.711036,464.213117 763.454617,462.151917 763.454617,461.275453 C763.454617,458.869873 761.517485,457.667083 757.643222,457.667083 L757.643222,457.667083 L757.643222,450.518426 L780,450.518426 L780,457.667083 L779.638165,457.707736 C777.139435,458.01692 775.357099,458.843053 774.291159,460.186134 C773.17446,461.593171 770.656189,466.336248 766.736346,474.415365 L766.736346,474.415365 L744.858153,519.622111 L744.591471,520.17407 C740.430654,528.757994 737.078291,534.361016 734.534381,536.983136 C731.936346,539.661045 728.654617,541 724.689194,541 C721.726523,541 719.288016,540.114928 717.373674,538.344785 C715.459332,536.574641 714.502161,534.396002 714.502161,531.808869 C714.502161,527.406204 717.578782,524.455965 723.732024,522.958151 C729.42947,521.64189 733.201179,520.166771 735.047151,518.532792 C736.893124,516.898813 738.932809,513.65355 741.166208,508.797002 L741.166208,508.797002 L716.826719,467.198626 L715.732809,465.156152 L715.539213,464.796592 C713.812538,461.607051 712.509683,459.673084 711.630648,458.994691 C710.972277,458.486594 709.969175,458.114627 708.621342,457.87879 L708.578,457.871 L711.106483,457.87133 L711.106483,450.518426 L743.217289,450.518426 Z M456.348576,448 C463.664653,448 469.935577,450.715231 475.161346,456.145693 C480.387115,461.576155 483,468.699376 483,477.515356 C483,486.603995 480.239431,494.011236 474.718292,499.737079 C469.197153,505.462921 462.687662,508.325843 455.189819,508.325843 C451.690825,508.325843 448.294075,507.666916 444.999569,506.349064 C441.705062,505.031211 438.490078,503.077154 435.354616,500.486891 L435.354616,500.486891 L435.354616,522.708614 L435.357179,523.107242 C435.398185,526.257001 435.931268,528.464449 436.956428,529.729588 C438.024303,531.047441 440.444061,531.706367 444.215703,531.706367 L444.215703,531.706367 L446.396894,531.706367 L446.396894,539 L404,539 L404,531.706367 L404.399369,531.704219 C408.081047,531.664125 410.481286,531.062719 411.600086,529.9 C412.758844,528.695755 413.338223,526.298627 413.338223,522.708614 L413.338223,522.708614 L413.338223,469.267416 L413.335803,468.873704 C413.29547,465.632683 412.750979,463.389513 411.70233,462.144195 C410.611734,460.849064 408.044291,460.201498 404,460.201498 L404,460.201498 L404,452.97603 L433.582399,448 L433.770192,448.691734 C434.553826,451.690753 434.945643,454.709363 434.945643,457.747566 C438.171987,454.475655 441.568737,452.033084 445.135893,450.41985 C448.703049,448.806617 452.44061,448 456.348576,448 Z M694.287623,432 L694.287623,450.518426 L706.913163,450.518426 L706.913163,457.667083 C707.409474,457.707428 707.873148,457.760661 708.304184,457.826783 L708.578,457.871 L694.287623,457.87133 L694.287623,486.942536 L694.288619,487.407388 C694.308539,492.004547 694.627264,495.060819 695.244794,496.576202 C695.882908,498.142099 697.204715,498.925047 699.210216,498.925047 C702.218468,498.925047 704.634185,497.064127 706.457367,493.342286 L706.457367,493.342286 L713.157564,495.589007 L712.999822,495.972264 C709.471543,504.340536 702.117444,508.524672 690.937525,508.524672 C684.693124,508.524672 679.998428,507.015511 676.853438,503.997189 C673.708448,500.978867 672.135953,496.451385 672.135953,490.414741 L672.135953,490.414741 L672.135953,457.87133 L664,457.87133 L664,450.518426 L665.709234,450.586508 L666.208412,450.581695 C671.509537,450.478998 676.06063,448.733153 679.86169,445.34416 C683.781532,441.849261 686.15167,437.401208 686.972102,432 L686.972102,432 L694.287623,432 Z M598.422472,448 C605.276404,448 610.702434,449.242938 614.700562,451.728814 C618.698689,454.214689 620.697753,457.491525 620.697753,461.559322 C620.697753,463.864407 619.909551,465.887006 618.333146,467.627119 C616.756742,469.367232 614.711985,470.237288 612.198876,470.237288 C607.218352,470.237288 604.042697,467.028249 602.67191,460.610169 C602.260674,458.711864 601.64382,457.355932 600.821348,456.542373 C599.998876,455.728814 598.582397,455.322034 596.57191,455.322034 C592.505243,455.322034 589.455243,456.915254 587.42191,460.101695 C585.388577,463.288136 584.37191,468.067797 584.37191,474.440678 C584.37191,483.163842 585.594195,489.435028 588.038764,493.254237 C590.483333,497.073446 594.310112,498.983051 599.519101,498.983051 C606.647191,498.983051 611.810487,495.548023 615.008989,488.677966 L615.008989,488.677966 L622,491.728814 L621.821225,492.198067 C619.868305,497.168573 616.443815,501.023455 611.547753,503.762712 C606.498689,506.587571 600.61573,508 593.898876,508 C584.714607,508 576.935393,505.457627 570.561236,500.372881 C564.187079,495.288136 561,488.271186 561,479.322034 C561,469.920904 564.472659,462.350282 571.417978,456.610169 C578.363296,450.870056 587.364794,448 598.422472,448 Z M657.666667,447.965217 L657.666667,489.72029 L657.669103,490.11372 C657.709711,493.352418 658.257919,495.59398 659.313725,496.838406 C660.411765,498.132609 662.973856,498.77971 667,498.77971 L667,498.77971 L667,506 L625,506 L625,498.77971 L626.578431,498.77971 L626.962554,498.77744 C630.629675,498.733543 632.960784,498.05314 633.955882,496.736232 C634.985294,495.373913 635.5,493.035266 635.5,489.72029 L635.5,489.72029 L635.5,469.421739 L635.497475,469.023343 C635.457067,465.874969 634.931765,463.657768 633.921569,462.371739 C632.869281,461.032126 630.421569,460.362319 626.578431,460.362319 L626.578431,460.362319 L625,460.362319 L625,453.142029 L657.666667,447.965217 Z M513.189966,412 L513.189966,489.72029 L513.192398,490.118808 C513.232924,493.398651 513.780028,495.64987 514.833709,496.872464 C515.856483,498.059195 518.211702,498.692118 521.899369,498.771233 L522.157,498.775 L522.043158,498.77744 L522.043158,498.77744 L521.659808,498.77971 L520.084555,498.77971 L520.084555,506 L481,506 L481,498.77971 L481.433181,498.777639 C484.857426,498.744508 487.292796,498.313797 488.73929,497.485507 C490.246054,496.622705 490.999436,494.0343 490.999436,489.72029 L490.999436,489.72029 L490.999436,433.252174 L490.997041,432.858475 C490.955515,429.488932 490.374154,427.224754 489.252959,426.065942 C488.088641,424.86256 485.337655,424.26087 481,424.26087 L481,424.26087 L481,416.972464 L513.189966,412 Z M552.685457,447.965217 L552.685457,489.72029 L552.687888,490.11372 C552.728414,493.352418 553.275518,495.59398 554.3292,496.838406 C555.425028,498.132609 557.981962,498.77971 562,498.77971 L562,498.77971 L562,506 L522.709977,506 L522.709977,498.77971 L522.299574,498.777591 L522.299574,498.777591 L522.157,498.775 L522.416995,498.770628 C525.738726,498.688889 527.9047,498.055411 528.914917,496.870193 L529.022407,496.736232 C530.049746,495.373913 530.563416,493.035266 530.563416,489.72029 L530.563416,489.72029 L530.563416,469.421739 L530.560896,469.023343 C530.520569,465.874969 529.996325,463.657768 528.988162,462.371739 C527.937993,461.032126 525.495209,460.362319 521.659808,460.362319 L521.659808,460.362319 L520.084555,460.362319 L520.084555,453.142029 L552.685457,447.965217 Z M295.516238,412 C306.17659,412 314.84382,412.616618 321.51793,413.849854 C328.192039,415.08309 334.501691,417.789359 340.446888,421.968659 C346.392084,426.147959 350.970568,431.560496 354.182341,438.206268 C357.394114,444.852041 359,452.171526 359,460.164723 C359,468.340622 357.303,475.648688 353.908999,482.088921 C350.514998,488.529155 345.947903,493.667638 340.207713,497.504373 C334.467524,501.341108 328.522327,503.716229 322.372124,504.629738 C316.379619,505.519823 306.408044,505.976276 292.457401,506 L292.457401,506 L258,506 L258,498.395044 L258.452189,498.392802 C263.075163,498.34648 266.158985,497.582164 267.703654,496.099854 C269.298151,494.569728 270.095399,491.543732 270.095399,487.021866 L270.095399,487.021866 L270.095399,432.005831 L270.092894,431.571991 C270.044451,427.42309 269.293595,424.575964 267.840325,423.030612 C266.336942,421.431973 263.056834,420.632653 258,420.632653 L258,420.632653 L258,413.09621 L269.138701,412.685131 L269.996018,412.650447 C280.795048,412.216816 289.301788,412 295.516238,412 Z M395.666667,447.965217 L395.666667,489.72029 L395.669103,490.11372 C395.709711,493.352418 396.257919,495.59398 397.313725,496.838406 C398.411765,498.132609 400.973856,498.77971 405,498.77971 L405,498.77971 L405,506 L363,506 L363,498.77971 L364.578431,498.77971 L364.962554,498.77744 C368.629675,498.733543 370.960784,498.05314 371.955882,496.736232 C372.985294,495.373913 373.5,493.035266 373.5,489.72029 L373.5,489.72029 L373.5,469.421739 L373.497475,469.023343 C373.457067,465.874969 372.931765,463.657768 371.921569,462.371739 C370.869281,461.032126 368.421569,460.362319 364.578431,460.362319 L364.578431,460.362319 L363,460.362319 L363,453.142029 L395.666667,447.965217 Z M448.305436,458.156554 C445.66983,458.156554 443.136468,459.076779 440.705349,460.917228 C438.274231,462.757678 436.490653,464.791261 435.354616,467.017978 L435.354616,467.017978 L435.354616,492.238951 L435.719511,492.614464 C437.428716,494.337872 439.226987,495.655522 441.114323,496.567416 C443.136468,497.544444 445.238136,498.032959 447.419327,498.032959 C451.554501,498.032959 454.644521,496.408365 456.689387,493.159176 C458.734254,489.909988 459.756687,485.036205 459.756687,478.537828 C459.756687,471.721348 458.802416,466.62035 456.893874,463.234831 C454.985332,459.849313 452.122519,458.156554 448.305436,458.156554 Z M294.354533,420.358601 L294.354533,484.349854 L294.355274,484.78514 C294.36861,488.656306 294.56198,491.274573 294.935386,492.639942 C295.322621,494.055879 296.347654,495.266278 298.010487,496.271137 C299.67332,497.275996 302.235904,497.778426 305.698241,497.778426 C314.262968,497.778426 320.675124,494.626822 324.934709,488.323615 C329.194294,482.020408 331.324087,472.588435 331.324087,460.027697 C331.324087,449.887755 329.752368,441.814626 326.608931,435.808309 C323.465494,429.801992 319.388137,425.725462 314.376861,423.578717 C309.365584,421.431973 302.691475,420.358601 294.354533,420.358601 L294.354533,420.358601 Z M646.892157,412 C650.323529,412 653.228758,413.203382 655.607843,415.610145 C657.986928,418.016908 659.176471,420.923188 659.176471,424.328986 C659.176471,427.734783 657.97549,430.641063 655.573529,433.047826 C653.171569,435.454589 650.277778,436.657971 646.892157,436.657971 C643.369281,436.657971 640.429739,435.420531 638.073529,432.945652 C635.71732,430.470773 634.539216,427.598551 634.539216,424.328986 C634.539216,420.968599 635.751634,418.073671 638.176471,415.644203 C640.601307,413.214734 643.506536,412 646.892157,412 Z M541.932638,412 C545.357103,412 548.256483,413.203382 550.630778,415.610145 C553.005073,418.016908 554.192221,420.923188 554.192221,424.328986 C554.192221,427.734783 552.993658,430.641063 550.596533,433.047826 C548.199408,435.454589 545.311443,436.657971 541.932638,436.657971 C538.416855,436.657971 535.48323,435.420531 533.131764,432.945652 C530.780299,430.470773 529.604566,427.598551 529.604566,424.328986 C529.604566,420.968599 530.814543,418.073671 533.234498,415.644203 C535.654453,413.214734 538.553833,412 541.932638,412 Z M384.892157,412 C388.323529,412 391.228758,413.203382 393.607843,415.610145 C395.986928,418.016908 397.176471,420.923188 397.176471,424.328986 C397.176471,427.734783 395.97549,430.641063 393.573529,433.047826 C391.171569,435.454589 388.277778,436.657971 384.892157,436.657971 C381.369281,436.657971 378.429739,435.420531 376.073529,432.945652 C373.71732,430.470773 372.539216,427.598551 372.539216,424.328986 C372.539216,420.968599 373.751634,418.073671 376.176471,415.644203 C378.601307,413.214734 381.506536,412 384.892157,412 Z" id="Combined-Shape"></path>
        </g>
    </g>
</svg>